<svg width="298" height="155" viewBox="0 0 298 155" fill="none" xmlns="http://www.w3.org/2000/svg">
<path d="M62.8398 14H237.29V117.43H62.8398V96.98V14Z" fill="white" stroke="#3C4043" stroke-miterlimit="10" stroke-linecap="round" stroke-linejoin="round"/>
<path d="M62.8398 28.0801H185.65" stroke="#3C4043" stroke-miterlimit="10" stroke-linecap="round" stroke-linejoin="round"/>
<path d="M62.8398 96.6499H237.29" stroke="#3C4043" stroke-miterlimit="10" stroke-linecap="round" stroke-linejoin="round"/>
<path d="M72.8191 22.8398C73.6641 22.8398 74.3491 22.1548 74.3491 21.3098C74.3491 20.4648 73.6641 19.7798 72.8191 19.7798C71.9741 19.7798 71.2891 20.4648 71.2891 21.3098C71.2891 22.1548 71.9741 22.8398 72.8191 22.8398Z" stroke="#3C4043" stroke-miterlimit="10"/>
<path d="M80.5886 22.8398C81.4336 22.8398 82.1186 22.1548 82.1186 21.3098C82.1186 20.4648 81.4336 19.7798 80.5886 19.7798C79.7436 19.7798 79.0586 20.4648 79.0586 21.3098C79.0586 22.1548 79.7436 22.8398 80.5886 22.8398Z" stroke="#3C4043" stroke-miterlimit="10"/>
<path d="M127.09 141.49C127.09 141.49 137.7 133.71 138.05 117.43H162.84C163.18 133.7 173.8 141.49 173.8 141.49H127.09Z" fill="#E8EAED" stroke="#3C4043" stroke-miterlimit="10" stroke-linecap="round" stroke-linejoin="round"/>
<path d="M163.399 123.14C163.079 121.37 162.869 119.47 162.829 117.43H138.039L163.399 123.14Z" fill="#3C4043" stroke="#3C4043" stroke-miterlimit="10" stroke-linecap="round" stroke-linejoin="round"/>
<path d="M222.25 91.7498C240.934 91.7498 256.08 76.6036 256.08 57.9198C256.08 39.236 240.934 24.0898 222.25 24.0898C203.566 24.0898 188.42 39.236 188.42 57.9198C188.42 76.6036 203.566 91.7498 222.25 91.7498Z" fill="#4285F4" stroke="#4285F4" stroke-miterlimit="10"/>
<path d="M222.25 91.7498C240.934 91.7498 256.08 76.6036 256.08 57.9198C256.08 39.236 240.934 24.0898 222.25 24.0898C203.566 24.0898 188.42 39.236 188.42 57.9198C188.42 76.6036 203.566 91.7498 222.25 91.7498Z" stroke="#3C4043" stroke-miterlimit="10" stroke-linecap="round" stroke-linejoin="round"/>
<path d="M244.09 83.75L271.5 117.43" stroke="#3C4043" stroke-miterlimit="10" stroke-linecap="round" stroke-linejoin="round"/>
<path d="M47.1595 48.3598C46.7395 38.7598 52.7195 30.5098 60.5495 30.5098C68.3795 30.5098 74.3695 38.7598 73.9395 48.3698L71.1795 110.47H49.9195L47.1595 48.3598Z" fill="#34A853" stroke="#34A853" stroke-miterlimit="10" stroke-linecap="round" stroke-linejoin="round"/>
<path d="M25.0201 89.6102C21.7801 83.2002 20.2001 73.3802 25.8101 71.3002C33.2901 68.5302 40.4901 75.4802 43.5601 84.0002C46.4201 91.9502 52.4701 110.47 52.4701 110.47H36.2201L25.0201 89.6102Z" fill="#34A853" stroke="#34A853" stroke-miterlimit="10" stroke-linecap="round" stroke-linejoin="round"/>
<path d="M63.4198 110.11L68.1298 44.45C68.1298 35.58 63.7898 30.5 61.0098 30.5C58.5198 30.5 53.2598 36.5 53.2598 44.45L54.8698 110.11" stroke="#3C4043" stroke-miterlimit="10" stroke-linecap="round" stroke-linejoin="round"/>
<path d="M48.8001 110.11C48.8001 110.11 40.4801 88.6202 37.2701 82.1602C33.2501 74.0402 28.0001 70.0802 25.8101 71.3002C23.1701 72.7702 25.0701 79.0502 28.4701 85.9102C31.6901 92.4002 42.8701 110.11 42.8701 110.11" stroke="#3C4043" stroke-miterlimit="10" stroke-linecap="round" stroke-linejoin="round"/>
<path d="M54.6295 141.08C71.5395 141.08 85.2395 127.37 85.2395 110.47H24.0195C24.0195 127.37 37.7195 141.08 54.6295 141.08Z" fill="#E8EAED" stroke="#E8EAED" stroke-miterlimit="10" stroke-linecap="round" stroke-linejoin="round"/>
<path d="M284.4 141.49H18.5" stroke="#3C4043" stroke-miterlimit="10" stroke-linecap="round" stroke-linejoin="round"/>
<mask id="path-17-inside-1_2084_59325" fill="white">
<path d="M219.442 63.138V61.122C219.442 60.142 219.554 59.302 219.778 58.602C220.03 57.874 220.422 57.188 220.954 56.544C221.514 55.872 222.228 55.13 223.096 54.318C223.712 53.758 224.258 53.226 224.734 52.722C225.21 52.218 225.574 51.686 225.826 51.126C226.106 50.538 226.246 49.88 226.246 49.152C226.246 47.836 225.812 46.758 224.944 45.918C224.104 45.078 222.9 44.658 221.332 44.658C220.324 44.658 219.47 44.868 218.77 45.288C218.07 45.708 217.51 46.24 217.09 46.884C216.67 47.528 216.348 48.172 216.124 48.816L212.848 47.43C213.156 46.562 213.66 45.652 214.36 44.7C215.06 43.748 215.984 42.936 217.132 42.264C218.28 41.592 219.68 41.256 221.332 41.256C223.04 41.256 224.524 41.606 225.784 42.306C227.072 42.978 228.066 43.916 228.766 45.12C229.494 46.296 229.858 47.64 229.858 49.152C229.858 50.328 229.606 51.378 229.102 52.302C228.626 53.226 228.066 54.024 227.422 54.696C226.778 55.34 226.218 55.886 225.742 56.334C225.154 56.866 224.664 57.384 224.272 57.888C223.88 58.392 223.586 58.924 223.39 59.484C223.194 60.044 223.096 60.674 223.096 61.374V63.138H219.442ZM221.29 72.252C220.534 72.252 219.89 72 219.358 71.496C218.854 70.964 218.602 70.32 218.602 69.564C218.602 68.836 218.854 68.22 219.358 67.716C219.89 67.184 220.534 66.918 221.29 66.918C222.018 66.918 222.634 67.184 223.138 67.716C223.67 68.22 223.936 68.836 223.936 69.564C223.936 70.32 223.67 70.964 223.138 71.496C222.634 72 222.018 72.252 221.29 72.252Z"/>
</mask>
<path d="M219.442 63.138V61.122C219.442 60.142 219.554 59.302 219.778 58.602C220.03 57.874 220.422 57.188 220.954 56.544C221.514 55.872 222.228 55.13 223.096 54.318C223.712 53.758 224.258 53.226 224.734 52.722C225.21 52.218 225.574 51.686 225.826 51.126C226.106 50.538 226.246 49.88 226.246 49.152C226.246 47.836 225.812 46.758 224.944 45.918C224.104 45.078 222.9 44.658 221.332 44.658C220.324 44.658 219.47 44.868 218.77 45.288C218.07 45.708 217.51 46.24 217.09 46.884C216.67 47.528 216.348 48.172 216.124 48.816L212.848 47.43C213.156 46.562 213.66 45.652 214.36 44.7C215.06 43.748 215.984 42.936 217.132 42.264C218.28 41.592 219.68 41.256 221.332 41.256C223.04 41.256 224.524 41.606 225.784 42.306C227.072 42.978 228.066 43.916 228.766 45.12C229.494 46.296 229.858 47.64 229.858 49.152C229.858 50.328 229.606 51.378 229.102 52.302C228.626 53.226 228.066 54.024 227.422 54.696C226.778 55.34 226.218 55.886 225.742 56.334C225.154 56.866 224.664 57.384 224.272 57.888C223.88 58.392 223.586 58.924 223.39 59.484C223.194 60.044 223.096 60.674 223.096 61.374V63.138H219.442ZM221.29 72.252C220.534 72.252 219.89 72 219.358 71.496C218.854 70.964 218.602 70.32 218.602 69.564C218.602 68.836 218.854 68.22 219.358 67.716C219.89 67.184 220.534 66.918 221.29 66.918C222.018 66.918 222.634 67.184 223.138 67.716C223.67 68.22 223.936 68.836 223.936 69.564C223.936 70.32 223.67 70.964 223.138 71.496C222.634 72 222.018 72.252 221.29 72.252Z" fill="white"/>
<path d="M219.442 63.138H218.792V63.788H219.442V63.138ZM219.778 58.602L219.164 58.3894L219.161 58.3966L219.159 58.4039L219.778 58.602ZM220.954 56.544L220.455 56.1279L220.453 56.13L220.954 56.544ZM223.096 54.318L222.659 53.837L222.652 53.8433L223.096 54.318ZM224.734 52.722L225.207 53.1683H225.207L224.734 52.722ZM225.826 51.126L225.239 50.8465L225.233 50.8593L225.826 51.126ZM224.944 45.918L224.484 46.3777L224.492 46.3851L224.944 45.918ZM218.77 45.288L218.436 44.7306L218.436 44.7306L218.77 45.288ZM216.124 48.816L215.871 49.4146L216.51 49.6851L216.738 49.0295L216.124 48.816ZM212.848 47.43L212.235 47.2126L212.031 47.7899L212.595 48.0286L212.848 47.43ZM214.36 44.7L214.884 45.0851V45.0851L214.36 44.7ZM217.132 42.264L217.46 42.825L217.46 42.825L217.132 42.264ZM225.784 42.306L225.468 42.8742L225.476 42.8783L225.483 42.8823L225.784 42.306ZM228.766 45.12L228.204 45.4467L228.209 45.4545L228.213 45.4621L228.766 45.12ZM229.102 52.302L228.531 51.9907L228.528 51.9975L228.524 52.0043L229.102 52.302ZM227.422 54.696L227.882 55.1557L227.891 55.1457L227.422 54.696ZM225.742 56.334L226.178 56.8161L226.187 56.8073L225.742 56.334ZM224.272 57.888L223.759 57.4889L224.272 57.888ZM223.39 59.484L224.004 59.6987L223.39 59.484ZM223.096 63.138V63.788H223.746V63.138H223.096ZM219.358 71.496L218.886 71.943L218.898 71.9558L218.911 71.9679L219.358 71.496ZM219.358 67.716L219.818 68.1756L219.358 67.716ZM223.138 67.716L222.666 68.163L222.678 68.1758L222.691 68.1879L223.138 67.716ZM223.138 71.496L222.678 71.0364L223.138 71.496ZM220.092 63.138V61.122H218.792V63.138H220.092ZM220.092 61.122C220.092 60.1883 220.199 59.4188 220.397 58.8001L219.159 58.4039C218.909 59.1852 218.792 60.0957 218.792 61.122H220.092ZM220.392 58.8146C220.617 58.1659 220.968 57.5472 221.455 56.958L220.453 56.13C219.876 56.8288 219.443 57.5821 219.164 58.3894L220.392 58.8146ZM221.453 56.9601C221.991 56.3146 222.685 55.5923 223.54 54.7927L222.652 53.8433C221.771 54.6677 221.037 55.4294 220.455 56.1279L221.453 56.9601ZM223.533 54.799C224.159 54.23 224.717 53.6864 225.207 53.1683L224.261 52.2757C223.799 52.7656 223.265 53.286 222.659 53.837L223.533 54.799ZM225.207 53.1683C225.726 52.6183 226.133 52.0268 226.419 51.3927L225.233 50.8593C225.015 51.3452 224.694 51.8177 224.261 52.2757L225.207 53.1683ZM226.413 51.4055C226.739 50.7204 226.896 49.9652 226.896 49.152H225.596C225.596 49.7948 225.473 50.3556 225.239 50.8465L226.413 51.4055ZM226.896 49.152C226.896 47.6774 226.403 46.425 225.396 45.4509L224.492 46.3851C225.221 47.091 225.596 47.9946 225.596 49.152H226.896ZM225.404 45.4584C224.406 44.4613 223.015 44.008 221.332 44.008V45.308C222.785 45.308 223.802 45.6947 224.484 46.3776L225.404 45.4584ZM221.332 44.008C220.234 44.008 219.258 44.2373 218.436 44.7306L219.104 45.8454C219.682 45.4987 220.414 45.308 221.332 45.308V44.008ZM218.436 44.7306C217.656 45.1981 217.023 45.7974 216.546 46.5289L217.634 47.2391C217.997 46.6826 218.484 46.2179 219.104 45.8454L218.436 44.7306ZM216.546 46.5289C216.1 47.2116 215.753 47.9028 215.51 48.6025L216.738 49.0295C216.943 48.4412 217.24 47.8444 217.634 47.2391L216.546 46.5289ZM216.377 48.2174L213.101 46.8314L212.595 48.0286L215.871 49.4146L216.377 48.2174ZM213.461 47.6474C213.742 46.8535 214.211 45.9995 214.884 45.0851L213.836 44.3149C213.109 45.3045 212.57 46.2705 212.235 47.2126L213.461 47.6474ZM214.884 45.0851C215.525 44.2128 216.379 43.4579 217.46 42.825L216.804 41.703C215.589 42.4141 214.595 43.2832 213.836 44.3149L214.884 45.0851ZM217.46 42.825C218.487 42.2238 219.768 41.906 221.332 41.906V40.606C219.592 40.606 218.073 40.9602 216.804 41.703L217.46 42.825ZM221.332 41.906C222.95 41.906 224.321 42.237 225.468 42.8742L226.1 41.7378C224.727 40.975 223.13 40.606 221.332 40.606V41.906ZM225.483 42.8823C226.667 43.5 227.569 44.3536 228.204 45.4467L229.328 44.7933C228.563 43.4784 227.477 42.456 226.085 41.7297L225.483 42.8823ZM228.213 45.4621C228.872 46.5259 229.208 47.7492 229.208 49.152H230.508C230.508 47.5308 230.116 46.0661 229.319 44.7779L228.213 45.4621ZM229.208 49.152C229.208 50.2322 228.977 51.173 228.531 51.9907L229.673 52.6133C230.235 51.583 230.508 50.4238 230.508 49.152H229.208ZM228.524 52.0043C228.074 52.8791 227.549 53.6244 226.953 54.2463L227.891 55.1457C228.583 54.4236 229.178 53.5729 229.68 52.5997L228.524 52.0043ZM226.962 54.2364C226.321 54.8774 225.766 55.4185 225.297 55.8607L226.187 56.8073C226.67 56.3535 227.235 55.8026 227.882 55.1556L226.962 54.2364ZM225.306 55.852C224.696 56.4036 224.179 56.949 223.759 57.4889L224.785 58.2871C225.149 57.819 225.612 57.3284 226.178 56.816L225.306 55.852ZM223.759 57.4889C223.327 58.0443 222.997 58.6379 222.776 59.2693L224.004 59.6987C224.175 59.2101 224.433 58.7397 224.785 58.2871L223.759 57.4889ZM222.776 59.2693C222.552 59.9094 222.446 60.6137 222.446 61.374H223.746C223.746 60.7343 223.836 60.1786 224.004 59.6987L222.776 59.2693ZM222.446 61.374V63.138H223.746V61.374H222.446ZM223.096 62.488H219.442V63.788H223.096V62.488ZM221.29 71.602C220.694 71.602 220.212 71.4098 219.805 71.0241L218.911 71.9679C219.568 72.5902 220.374 72.902 221.29 72.902V71.602ZM219.83 71.049C219.444 70.6419 219.252 70.1595 219.252 69.564H217.952C217.952 70.4805 218.264 71.2861 218.886 71.943L219.83 71.049ZM219.252 69.564C219.252 69.0043 219.438 68.5548 219.818 68.1756L218.898 67.2564C218.27 67.8852 217.952 68.6677 217.952 69.564H219.252ZM219.818 68.1756C220.227 67.7662 220.705 67.568 221.29 67.568V66.268C220.363 66.268 219.553 66.6018 218.898 67.2564L219.818 68.1756ZM221.29 67.568C221.838 67.568 222.284 67.7596 222.666 68.163L223.61 67.269C222.984 66.6084 222.198 66.268 221.29 66.268V67.568ZM222.691 68.1879C223.094 68.57 223.286 69.0158 223.286 69.564H224.586C224.586 68.6562 224.246 67.87 223.585 67.2441L222.691 68.1879ZM223.286 69.564C223.286 70.1485 223.088 70.6269 222.678 71.0364L223.598 71.9556C224.252 71.3011 224.586 70.4915 224.586 69.564H223.286ZM222.678 71.0364C222.299 71.4156 221.85 71.602 221.29 71.602V72.902C222.186 72.902 222.969 72.5844 223.598 71.9556L222.678 71.0364Z" fill="#4285F4" mask="url(#path-17-inside-1_2084_59325)"/>
</svg>
