<svg width="298" height="155" viewBox="0 0 298 155" fill="none" xmlns="http://www.w3.org/2000/svg">
<path d="M59.8398 13.5H234.29V116.93H59.8398V96.48V13.5Z" fill="white" stroke="#3C4043" stroke-miterlimit="10" stroke-linecap="round" stroke-linejoin="round"/>
<path d="M59.8398 27.5801H182.65" stroke="#3C4043" stroke-miterlimit="10" stroke-linecap="round" stroke-linejoin="round"/>
<path d="M59.8398 96.1504H234.29" stroke="#3C4043" stroke-miterlimit="10" stroke-linecap="round" stroke-linejoin="round"/>
<path d="M69.8198 22.3393C70.6648 22.3393 71.3498 21.6543 71.3498 20.8093C71.3498 19.9643 70.6648 19.2793 69.8198 19.2793C68.9748 19.2793 68.2898 19.9643 68.2898 20.8093C68.2898 21.6543 68.9748 22.3393 69.8198 22.3393Z" stroke="#3C4043" stroke-miterlimit="10"/>
<path d="M77.5898 22.3393C78.4348 22.3393 79.1198 21.6543 79.1198 20.8093C79.1198 19.9643 78.4348 19.2793 77.5898 19.2793C76.7448 19.2793 76.0598 19.9643 76.0598 20.8093C76.0598 21.6543 76.7448 22.3393 77.5898 22.3393Z" stroke="#3C4043" stroke-miterlimit="10"/>
<path d="M163.61 36.8809H80.5198V68.2809H163.61V36.8809Z" fill="#D2E3FC" stroke="#D2E3FC" stroke-miterlimit="10" stroke-linecap="round" stroke-linejoin="round"/>
<path d="M80.5198 77.4004H102.7" stroke="#3C4043" stroke-miterlimit="10" stroke-linecap="round" stroke-linejoin="round"/>
<path d="M80.5198 86.4805H94.1098" stroke="#3C4043" stroke-miterlimit="10" stroke-linecap="round" stroke-linejoin="round"/>
<path d="M116.98 77.4004H139.16" stroke="#3C4043" stroke-miterlimit="10" stroke-linecap="round" stroke-linejoin="round"/>
<path d="M116.98 86.4805H130.57" stroke="#3C4043" stroke-miterlimit="10" stroke-linecap="round" stroke-linejoin="round"/>
<path d="M157.78 88.5307C160.696 88.5307 163.06 86.1668 163.06 83.2507C163.06 80.3346 160.696 77.9707 157.78 77.9707C154.864 77.9707 152.5 80.3346 152.5 83.2507C152.5 86.1668 154.864 88.5307 157.78 88.5307Z" fill="#EA4335"/>
<path d="M124.09 140.99C124.09 140.99 134.7 133.21 135.05 116.93H159.84C160.18 133.2 170.8 140.99 170.8 140.99H124.09Z" fill="#E8EAED" stroke="#3C4043" stroke-miterlimit="10" stroke-linecap="round" stroke-linejoin="round"/>
<path d="M160.4 122.64C160.08 120.87 159.87 118.97 159.83 116.93H135.04L160.4 122.64Z" fill="#3C4043" stroke="#3C4043" stroke-miterlimit="10" stroke-linecap="round" stroke-linejoin="round"/>
<path d="M44.17 47.86C43.74 38.25 49.73 30 57.56 30C65.39 30 71.38 38.25 70.95 47.86L68.19 109.95H46.93L44.17 47.86Z" fill="#34A853" stroke="#34A853" stroke-miterlimit="10" stroke-linecap="round" stroke-linejoin="round"/>
<path d="M22.02 89.0999C18.79 82.6999 17.21 72.8699 22.81 70.7899C30.29 68.0199 37.49 74.9699 40.56 83.4799C43.42 91.4299 49.46 109.95 49.46 109.95H33.23L22.02 89.0999Z" fill="#34A853" stroke="#34A853" stroke-miterlimit="10" stroke-linecap="round" stroke-linejoin="round"/>
<path d="M60.42 109.6L65.13 43.95C65.13 35.08 60.79 30 58.01 30C55.52 30 50.26 36 50.26 43.95L51.87 109.6" stroke="#3C4043" stroke-miterlimit="10" stroke-linecap="round" stroke-linejoin="round"/>
<path d="M45.8101 109.6C45.8101 109.6 37.4901 88.1103 34.2801 81.6503C30.2501 73.5303 25.0101 69.5603 22.8101 70.7903C20.1701 72.2603 22.0701 78.5403 25.4701 85.4003C28.6901 91.8903 39.8701 109.6 39.8701 109.6" stroke="#3C4043" stroke-miterlimit="10" stroke-linecap="round" stroke-linejoin="round"/>
<path d="M51.64 140.571C68.55 140.571 82.25 126.861 82.25 109.961H21.03C21.03 126.861 34.73 140.571 51.64 140.571Z" fill="#E8EAED" stroke="#E8EAED" stroke-miterlimit="10" stroke-linecap="round" stroke-linejoin="round"/>
<path d="M281.4 140.99H15.5" stroke="#3C4043" stroke-miterlimit="10" stroke-linecap="round" stroke-linejoin="round"/>
<path d="M234.444 102.48C234.444 102.48 184.276 102.5 179.5 102.5C179.5 96.084 179.5 58.5 179.5 58.5L234.5 92.9503L234.444 102.48Z" fill="#3C4043" stroke="#3C4043" stroke-miterlimit="10" stroke-linecap="round" stroke-linejoin="round"/>
<path d="M183.59 98.98H241.93C239.23 85.51 237.86 71.81 237.86 58.07V37H179.52V58.07C179.52 71.81 180.88 85.51 183.59 98.98Z" fill="#FBBC04" stroke="#FBBC04" stroke-miterlimit="10" stroke-linecap="round" stroke-linejoin="round"/>
<path d="M199.68 59L192.62 66.43L199.68 74" stroke="white" stroke-miterlimit="10" stroke-linecap="round" stroke-linejoin="round"/>
<path d="M218.74 74L225.8 66.57L218.74 59" stroke="white" stroke-miterlimit="10" stroke-linecap="round" stroke-linejoin="round"/>
<path d="M213.41 59L205.01 74" stroke="white" stroke-miterlimit="10" stroke-linecap="round" stroke-linejoin="round"/>
<path d="M179.5 37L179.5 58.0437C179.5 71.7993 180.851 85.5148 183.543 99H242" stroke="#3C4043" stroke-miterlimit="10" stroke-linecap="round" stroke-linejoin="round"/>
</svg>
