<svg width="30" height="18" viewBox="0 0 30 18" fill="none" xmlns="http://www.w3.org/2000/svg">
<path d="M1.75024 16.25H6.75024V17.75H2.00024C1.51707 17.75 1.10968 17.5809 0.764522 17.2357C0.419366 16.8906 0.250244 16.4832 0.250244 16V2C0.250244 1.51683 0.419365 1.10944 0.764522 0.764278C1.10968 0.419121 1.51708 0.25 2.00024 0.25H22.0002C22.4834 0.25 22.8905 0.419098 23.2357 0.764278C23.5197 1.04822 23.6845 1.37428 23.734 1.75H1.75024V16.25Z" fill="#444746"/>
<path d="M12.6483 4.99806L13.3486 6.71504L13.3495 6.71718L11.244 12.5588L11.2463 12.5654L10.5859 14.3976L10.5836 14.3911L9.73887 16.7347H11.4283L10.8501 15.1305L11.5105 13.2983L12.8371 16.9789C13.0124 17.4653 12.6525 17.9785 12.1359 17.9785H9.03123C8.60417 17.9785 8.28413 17.6277 8.28516 17.2313C8.28538 17.1482 8.29969 17.0632 8.33005 16.9789L12.6483 4.99806Z" fill="#444746"/>
<path d="M18.8926 4.50053C18.6028 4.50182 18.3136 4.6662 18.1958 4.99368L13.8835 16.9786C13.8746 17.0032 13.8671 17.028 13.8609 17.0527C13.7474 17.5149 14.0957 17.9757 14.5844 17.9757H14.5176C14.5393 17.9775 14.5614 17.9785 14.5837 17.9785H17.4695L16.9775 16.7343H15.2904L18.896 6.71346L22.5015 16.7343H20.8142L21.3942 15.1231L20.7347 13.2902L19.4956 16.7343H19.492L19.4052 16.9757C19.2301 17.4623 19.5896 17.9757 20.1054 17.9757L20.1369 17.9785H23.2082C23.2305 17.9785 23.2526 17.9775 23.2743 17.9757H23.2026C23.7184 17.9757 24.0779 17.4623 23.9028 16.9757L23.8149 16.7314H23.8195L19.5961 4.99368C19.4783 4.66619 19.1892 4.50181 18.8993 4.50053H18.8926Z" fill="#444746"/>
<path d="M19.3746 16.9757C19.199 17.4623 19.5596 17.9757 20.0769 17.9757L23.033 17.9785L22.4804 16.7343H20.788L21.3697 15.1231L20.7082 13.2902L19.4653 16.7343H19.4618L19.3746 16.9757Z" fill="#444746"/>
<path d="M28.0692 16.7343H28.0461H26.3844H25.0672L24.9794 16.9786C24.8046 17.4652 25.1636 17.9785 25.6787 17.9785H28.5312L28.5295 17.974L28.0692 16.7343Z" fill="#444746"/>
<path d="M26.3844 16.7343L26.961 15.1296L26.3024 13.2967L25.0672 16.7343H26.3844Z" fill="#444746"/>
<path d="M15.8512 9.98902L14.0506 4.99351C13.8137 4.3362 12.8852 4.3362 12.6483 4.99351L8.33005 16.9744C8.29913 17.0602 8.28486 17.1468 8.28516 17.2313C8.28538 17.1482 8.29969 17.0632 8.33005 16.9789L12.6483 4.99806L13.3486 6.71504L13.3495 6.71263L15.1908 11.8213L15.8512 9.98902Z" fill="#444746"/>
<path d="M16.3977 15.1229L16.9775 16.7343L17.4695 17.9785H17.6627L17.6816 17.9757C18.1974 17.9757 18.5569 17.4623 18.3818 16.9757L18.2939 16.7314H18.2954L18.1174 16.2366L17.0572 13.2901L17.0491 13.3126L16.3977 15.1229Z" fill="#444746"/>
<path d="M24.4684 6.71338L26.5682 12.557L26.5658 12.5635L27.2244 14.3964L27.2268 14.3899L28.0692 16.7343L28.5295 17.974H28.7312C29.1613 17.974 29.4828 17.6183 29.4772 17.2185C29.4757 17.1394 29.4614 17.0586 29.4326 16.9786L25.1356 5.07269L24.4684 6.71338Z" fill="#444746"/>
<path fill-rule="evenodd" clip-rule="evenodd" d="M25.1374 4.99351L25.1336 5.00283L25.1303 4.99368L25.125 5.00664L25.1203 4.99368C25.0015 4.66358 24.7087 4.4992 24.4166 4.50053C24.124 4.49919 23.8308 4.66352 23.7118 4.99351L21.9113 9.98917L22.5717 11.8214L22.576 11.8093L22.5813 11.8239L24.4167 6.72285L28.0236 16.7301H26.3632L26.9391 15.1296L26.2797 13.2967L26.2779 13.3015L26.2751 13.2937L26.272 13.3025L26.2699 13.2967L25.0308 16.7301H25.0067L24.9197 16.9715C24.8013 17.3 24.9271 17.6407 25.1803 17.8273C25.2737 17.8978 25.3849 17.947 25.5079 17.9664L25.5221 17.9689L25.5371 17.9711H24.1955L24.1933 17.974H25.5598C25.5656 17.9746 25.5714 17.9752 25.5772 17.9757H24.2028L24.2007 17.9785H25.6435H25.6551H28.7324H28.7532H28.7555C29.0975 17.9785 29.3708 17.7528 29.4651 17.4588C29.4669 17.4533 29.4686 17.4477 29.4702 17.4422C29.4928 17.3659 29.5034 17.2852 29.5 17.2029C29.4974 17.1275 29.4831 17.0506 29.4556 16.9744L28.6349 14.6973L25.1435 4.99368L25.1403 5.00153L25.1374 4.99351ZM28.5295 17.974H28.7312C29.1613 17.974 29.4828 17.6183 29.4772 17.2185C29.4757 17.1394 29.4614 17.0586 29.4326 16.9786L25.1356 5.07269L24.4684 6.71338L26.5682 12.557L26.5658 12.5635L27.2244 14.3964L27.2268 14.3899L28.0692 16.7343L28.5295 17.974ZM24.4327 6.74845L24.4201 6.71338L24.4167 6.72285L24.413 6.71263L24.4087 6.72449L24.4047 6.71338L22.5847 11.7564L21.9504 9.99102L23.7461 4.99368C23.8603 4.67575 24.1358 4.51102 24.4166 4.50053C24.7044 4.50492 24.99 4.66935 25.1071 4.99368L25.1179 5.02385L24.4279 6.71338L24.4367 6.73751L24.4327 6.74845Z" fill="#444746"/>
<path d="M23.7461 4.99368L21.9504 9.99102L22.5847 11.7564L24.4047 6.71338L24.4087 6.72449L24.413 6.71263L24.4167 6.72285L24.4201 6.71338L24.4327 6.74845L24.4367 6.73751L24.4279 6.71338L25.1179 5.02385L25.1071 4.99368C24.99 4.66935 24.7044 4.50492 24.4166 4.50053C24.1358 4.51102 23.8603 4.67575 23.7461 4.99368Z" fill="#444746"/>
</svg>
