<svg width="22" height="16" viewBox="0 0 22 16" fill="none" xmlns="http://www.w3.org/2000/svg">
  <path
      d="M4.525 14C5.225 14 5.81667 13.7583 6.3 13.275C6.78333 12.7917 7.025 12.2 7.025 11.5C7.025 11.1 6.93333 10.7083 6.75 10.325C6.56667 9.94167 6.29167 9.63333 5.925 9.4L5.025 8.8V2.5C5.025 2.35 4.975 2.23333 4.875 2.15C4.79167 2.05 4.675 2 4.525 2C4.375 2 4.25 2.05 4.15 2.15C4.06667 2.23333 4.025 2.35 4.025 2.5V8.8L3.125 9.4C2.75833 9.65 2.48333 9.95833 2.3 10.325C2.11667 10.6917 2.025 11.0833 2.025 11.5C2.025 12.2 2.26667 12.7917 2.75 13.275C3.23333 13.7583 3.825 14 4.525 14ZM4.525 16C3.275 16 2.20833 15.5667 1.325 14.7C0.458333 13.8333 0.0250001 12.7667 0.0250001 11.5C0.0250001 10.7 0.208333 9.98333 0.575 9.35C0.941667 8.71667 1.425 8.2 2.025 7.8V2.5C2.025 1.8 2.26667 1.20833 2.75 0.724999C3.23333 0.241666 3.825 -9.53674e-07 4.525 -9.53674e-07C5.225 -9.53674e-07 5.81667 0.241666 6.3 0.724999C6.78333 1.20833 7.025 1.8 7.025 2.5V7.8C7.625 8.2 8.10833 8.71667 8.475 9.35C8.84167 9.98333 9.025 10.7 9.025 11.5C9.025 12.75 8.58333 13.8167 7.7 14.7C6.83333 15.5667 5.775 16 4.525 16ZM12.7 11C11.9 10.45 11.25 9.74167 10.75 8.875C10.25 8.00833 10 7.05 10 6C10 4.33333 10.5833 2.91667 11.75 1.75C12.9167 0.583333 14.3333 -9.53674e-07 16 -9.53674e-07C17.6667 -9.53674e-07 19.0833 0.583333 20.25 1.75C21.4167 2.91667 22 4.33333 22 6C22 7.05 21.75 8.00833 21.25 8.875C20.75 9.74167 20.1 10.45 19.3 11H12.7ZM13.4 9H18.7C19.15 8.6 19.475 8.15 19.675 7.65C19.8917 7.15 20 6.6 20 6C20 4.9 19.6083 3.95833 18.825 3.175C18.0417 2.39167 17.1 2 16 2C14.9 2 13.9583 2.39167 13.175 3.175C12.3917 3.95833 12 4.9 12 6C12 6.6 12.1167 7.15 12.35 7.65C12.6 8.15 12.95 8.6 13.4 9ZM16 16C15.6 16 15.25 15.85 14.95 15.55C14.65 15.25 14.5 14.9 14.5 14.5H17.5C17.5 14.9 17.35 15.25 17.05 15.55C16.75 15.85 16.4 16 16 16ZM13 14V12H19V14H13Z"
      fill="#444746"/>
</svg>
