<svg fill="none" height="80" viewBox="0 0 80 80" width="80" xmlns="http://www.w3.org/2000/svg">
  <g id="media">
    <rect fill="#E8F0FE" height="80" width="80"/>
    <path
        d="M32.0339 41.2627L32.0339 41.2627L32.0324 41.2637C31.6445 41.5282 31.3498 41.8573 31.1528 42.2512C30.9578 42.6412 30.8604 43.0582 30.8604 43.5C30.8604 44.2426 31.1186 44.8766 31.6337 45.3917C32.1488 45.9068 32.7828 46.165 33.5254 46.165C34.268 46.165 34.902 45.9068 35.4171 45.3917C35.9322 44.8766 36.1904 44.2426 36.1904 43.5C36.1904 43.0738 36.0925 42.658 35.8992 42.2538C35.7025 41.8425 35.4068 41.5112 35.0155 41.2618L34.1904 40.7117V34.5C34.1904 34.3145 34.1281 34.1518 33.9924 34.033C33.8735 33.8973 33.7109 33.835 33.5254 33.835C33.3346 33.835 33.1667 33.9004 33.0337 34.0333C32.9116 34.1555 32.8604 34.3188 32.8604 34.5V40.7117L32.0339 41.2627ZM31.1169 39.9373L31.1904 39.8883V39.8V34.5C31.1904 33.8426 31.4155 33.2932 31.8671 32.8417C32.3186 32.3901 32.868 32.165 33.5254 32.165C34.1828 32.165 34.7322 32.3901 35.1837 32.8417C35.6353 33.2932 35.8604 33.8426 35.8604 34.5V39.8V39.8883L35.9339 39.9373C36.5125 40.323 36.9784 40.8209 37.3326 41.4327C37.6834 42.0386 37.8604 42.7262 37.8604 43.5C37.8604 44.7063 37.4361 45.731 36.5837 46.5833C35.7487 47.4184 34.7326 47.835 33.5254 47.835C32.3184 47.835 31.2935 47.4185 30.4415 46.5827C29.6073 45.7483 29.1904 44.7243 29.1904 43.5C29.1904 42.7262 29.3674 42.0386 29.7182 41.4327C30.0724 40.8209 30.5383 40.323 31.1169 39.9373ZM42.2908 41.1233L42.3377 41.165H42.4004H47.7004H47.7631L47.81 41.1233C48.2762 40.7089 48.6171 40.239 48.8277 39.7134C49.0536 39.1913 49.1654 38.6194 49.1654 38C49.1654 36.8559 48.7561 35.8724 47.9421 35.0583C47.128 34.2443 46.1445 33.835 45.0004 33.835C43.8563 33.835 42.8727 34.2443 42.0587 35.0583C41.2447 35.8724 40.8354 36.8559 40.8354 38C40.8354 38.622 40.9565 39.1961 41.2009 39.7198L41.2008 39.7198L41.2028 39.7238C41.4629 40.244 41.8263 40.7105 42.2908 41.1233ZM41.752 42.835C40.992 42.3035 40.3726 41.6234 39.8933 40.7925C39.4085 39.9522 39.1654 39.0225 39.1654 38C39.1654 36.3766 39.7317 35.002 40.8671 33.8667C42.0024 32.7313 43.377 32.165 45.0004 32.165C46.6238 32.165 47.9983 32.7313 49.1337 33.8667C50.2691 35.002 50.8354 36.3766 50.8354 38C50.8354 39.0225 50.5923 39.9522 50.1075 40.7925C49.6281 41.6234 49.0087 42.3035 48.2488 42.835H41.752ZM45.0004 47.835C44.647 47.835 44.3382 47.7045 44.0671 47.4333C43.839 47.2052 43.7104 46.9505 43.6753 46.665H46.3255C46.2904 46.9505 46.1618 47.2052 45.9337 47.4333C45.6626 47.7045 45.3538 47.835 45.0004 47.835ZM42.1654 45.835V44.165H47.8354V45.835H42.1654Z"
        fill="#444746"
        id="icon" stroke="#E8F0FE" stroke-width="0.33"/>
  </g>
</svg>
