<svg width="239" height="239" viewBox="0 0 239 239" fill="none" xmlns="http://www.w3.org/2000/svg">
<path d="M172.699 204.605H39.7283" stroke="#3C4043" stroke-miterlimit="10" stroke-linecap="round" stroke-linejoin="round"/>
<path d="M99.7718 138.654C104.53 162.076 105.345 191.929 101.651 196.753C97.0994 202.706 94.8832 201.218 94.8832 204.607C100.521 204.607 105.41 204.607 108.799 204.607C111.428 196.34 114.068 170.995 114.068 155.199C114.068 139.403 97.4361 127.182 99.7718 138.654Z" fill="white" stroke="#3C4043" stroke-miterlimit="10"/>
<path d="M99.7718 138.654C104.53 162.076 105.345 191.929 101.651 196.753C97.0994 202.706 94.8832 201.218 94.8832 204.607C100.521 204.607 105.41 204.607 108.799 204.607C111.428 196.34 114.068 170.995 114.068 155.199C114.068 139.403 97.4361 127.182 99.7718 138.654Z" fill="white" stroke="#3C4043" stroke-miterlimit="10" stroke-linecap="round" stroke-linejoin="round"/>
<path d="M99.7718 138.654C100.76 143.532 101.586 148.67 102.227 153.82L113.786 165.379C113.971 161.75 114.068 158.296 114.068 155.199C114.068 139.415 97.4361 127.182 99.7718 138.654Z" fill="#3C4043" stroke="#3C4043" stroke-miterlimit="10"/>
<path d="M99.1092 56.5243C104.161 63.2489 102.727 78.1973 97.0777 94.3623C91.4395 110.538 88.0609 120.859 99.7719 138.653C111.483 156.448 123.237 160.696 132.949 165.378C141.195 169.354 155.187 179.294 159.533 187.985C171.483 189.072 175.1 195.014 173.297 197.73C170.755 201.565 145.823 201.749 145.823 204.607H180.391C184.03 204.607 188.778 204.139 192.949 202.032C195.209 201.304 198.544 199.262 203.205 195.231C222.803 178.317 225.334 142.879 225.421 137.991C225.508 133.102 220.771 131.57 219.782 137.176C216.904 153.515 211.428 168.126 204.867 178.175C205.16 168.713 201.792 159.349 195.741 151.44C185.964 138.653 157.686 114.971 148.278 103.314C138.881 91.6573 138.881 87.138 135.872 75.4813C132.863 63.8247 130.983 40.8915 128.723 37.8823C126.475 34.8731 118.957 28.105 114.818 28.105C109.495 28.105 107.29 30.3647 103.911 29.6151C100.521 28.8546 92.6345 25.476 85.8664 22.4668C77.6861 45.2804 94.6008 50.5058 99.1092 56.5243Z" fill="white" stroke="#3C4043" stroke-miterlimit="10"/>
<path d="M195.741 151.439C203.357 161.401 206.724 173.666 203.9 185.519" stroke="#3C4043" stroke-miterlimit="10" stroke-linecap="round" stroke-linejoin="round"/>
<path d="M85.8557 22.4668L91.646 24.998C88.4847 27.1925 86.1924 27.5836 84.3565 27.6162C85.0192 25.0415 85.8557 22.4668 85.8557 22.4668Z" fill="#3C4043" stroke="#3C4043" stroke-miterlimit="10"/>
<path d="M163.748 169.941C158.251 176.807 156.426 188.258 163.52 196.264L170.57 196.188C155.568 196.188 145.823 196.644 145.823 204.607C150.331 204.607 174.003 204.607 180.391 204.607" fill="white"/>
<path d="M163.748 169.941C158.251 176.807 156.426 188.258 163.52 196.264L170.57 196.188C155.568 196.188 145.823 196.644 145.823 204.607C150.331 204.607 174.003 204.607 180.391 204.607" stroke="#3C4043" stroke-miterlimit="10" stroke-linecap="round" stroke-linejoin="round"/>
<path d="M118.196 136.404C121.586 140.543 125.714 148.441 126.844 154.079C127.974 159.718 131.352 189.43 129.473 196.198C128.072 201.249 123.085 202.357 121.955 204.617C127.224 204.617 136.61 204.617 136.61 204.617C138.87 198.979 141.13 192.07 140.749 186.42C140.369 180.782 139.62 150.701 139.62 140.543" fill="white"/>
<path d="M118.196 136.404C121.586 140.543 125.714 148.441 126.844 154.079C127.974 159.718 131.352 189.43 129.473 196.198C128.072 201.249 123.085 202.357 121.955 204.617C127.224 204.617 136.61 204.617 136.61 204.617C138.87 198.979 141.13 192.07 140.749 186.42C140.369 180.782 139.62 150.701 139.62 140.543" stroke="#3C4043" stroke-miterlimit="10" stroke-linecap="round" stroke-linejoin="round"/>
<path d="M130.983 43.1504C133.612 45.41 140.011 53.3079 140.38 60.4453C140.76 67.5936 139.631 67.2133 135.492 68.7125C131.352 70.2117 126.464 72.4713 123.085 72.102C119.707 71.7326 118.164 67.5827 120.076 62.7049C123.465 54.0466 131.733 51.0483 130.983 43.1504Z" fill="white" stroke="#3C4043" stroke-miterlimit="10"/>
<path d="M114.155 36.0894C113.202 36.0894 112.428 35.3161 112.428 34.3621C112.428 33.4081 113.202 32.6348 114.155 32.6348C115.109 32.6348 115.883 33.4081 115.883 34.3621C115.883 35.3161 115.109 36.0894 114.155 36.0894Z" fill="#3C4043"/>
</svg>
