<svg width="24" height="24" viewBox="0 0 24 24" fill="none" xmlns="http://www.w3.org/2000/svg">
<g id="icon">
<g id="Vector">
<path d="M2 12C2 6.48 6.48 2 12 2V4C7.59 4 4 7.59 4 12C4 16.41 7.59 20 12 20V22C6.48 22 2 17.52 2 12Z" fill="#1F1F1F"/>
<path d="M22 12C22 17.52 17.52 22 12 22V20C16.41 20 20 16.41 20 12C20 7.59 16.41 4 12 4V2C17.52 2 22 6.48 22 12Z" fill="#1F1F1F"/>
<path fill-rule="evenodd" clip-rule="evenodd" d="M21.8097 13.9516L19.8477 13.5635C19.9474 13.0594 20 12.5368 20 12C20 11.4632 19.9474 10.9406 19.8477 10.4365L21.8097 10.0484C21.9345 10.6796 22 11.3321 22 12C22 12.6679 21.9345 13.3204 21.8097 13.9516ZM20.3157 6.44384L18.6537 7.55648C18.0691 6.68321 17.3168 5.93092 16.4435 5.34628L17.5562 3.68435C18.6467 4.41443 19.5856 5.35333 20.3157 6.44384ZM17.5562 20.3157L16.4435 18.6537C17.3168 18.0691 18.0691 17.3168 18.6537 16.4435L20.3157 17.5562C19.5856 18.6467 18.6467 19.5856 17.5562 20.3157Z" fill="white"/>
<path d="M12 4C12.5368 4 13.0594 4.0526 13.5635 4.15232L13.9516 2.19034C13.3204 2.06547 12.6679 2 12 2V4Z" fill="white"/>
<path d="M13.5635 19.8477C13.0594 19.9474 12.5368 20 12 20V22C12.6679 22 13.3204 21.9345 13.9516 21.8097L13.5635 19.8477Z" fill="white"/>
</g>
</g>
</svg>
