<svg width="20" height="21" viewBox="0 0 20 21" fill="none" xmlns="http://www.w3.org/2000/svg">
<path d="M0 10.5C0 4.98 4.48 0.5 10 0.5V2.5C5.59 2.5 2 6.09 2 10.5C2 14.91 5.59 18.5 10 18.5V20.5C4.48 20.5 0 16.02 0 10.5Z" fill="#5F6368"/>
<path d="M20 10.5C20 16.02 15.52 20.5 10 20.5V18.5C14.41 18.5 18 14.91 18 10.5C18 6.09 14.41 2.5 10 2.5V0.5C15.52 0.5 20 4.98 20 10.5Z" fill="#5F6368"/>
<path fill-rule="evenodd" clip-rule="evenodd" d="M19.8097 12.4516L17.8477 12.0635C17.9474 11.5594 18 11.0368 18 10.5C18 9.96316 17.9474 9.44058 17.8477 8.93652L19.8097 8.54838C19.9345 9.17958 20 9.83215 20 10.5C20 11.1679 19.9345 11.8204 19.8097 12.4516ZM18.3157 4.94384L16.6537 6.05648C16.0691 5.18321 15.3168 4.43092 14.4435 3.84628L15.5562 2.18435C16.6467 2.91443 17.5856 3.85333 18.3157 4.94384ZM15.5562 18.8157L14.4435 17.1537C15.3168 16.5691 16.0691 15.8168 16.6537 14.9435L18.3157 16.0562C17.5856 17.1467 16.6467 18.0856 15.5562 18.8157Z" fill="white"/>
<path d="M10 2.5C10.5368 2.5 11.0594 2.5526 11.5635 2.65232L11.9516 0.69034C11.3204 0.565469 10.6679 0.5 10 0.5V2.5Z" fill="white"/>
<path d="M11.5635 18.3477C11.0594 18.4474 10.5368 18.5 10 18.5V20.5C10.6679 20.5 11.3204 20.4345 11.9516 20.3097L11.5635 18.3477Z" fill="white"/>
</svg>
