<svg width="1328" height="944" viewBox="0 0 1328 944" fill="none" xmlns="http://www.w3.org/2000/svg">
<path d="M236.81 89.3887H325.486V459.937H236.81" fill="white"/>
<path d="M236.81 89.3887H325.486V459.937H236.81" stroke="#E8EAED" stroke-miterlimit="10" stroke-linecap="round" stroke-linejoin="round"/>
<path d="M236.81 302.239H297.363" stroke="#E8EAED" stroke-miterlimit="10" stroke-linecap="round" stroke-linejoin="round"/>
<path d="M236.973 331.114H258.959" stroke="#E8EAED" stroke-miterlimit="10" stroke-linecap="round" stroke-linejoin="round"/>
<path d="M236.81 117.976H297.363V273.694H237.338" stroke="#E8EAED" stroke-miterlimit="10" stroke-linecap="round" stroke-linejoin="round"/>
<path d="M356.129 75.4863H1042V329.427H356.129V75.4863Z" fill="white" stroke="#E8EAED" stroke-miterlimit="10" stroke-linecap="round" stroke-linejoin="round"/>
<path d="M417.919 204.325H980.21" stroke="#E8EAED" stroke-miterlimit="10" stroke-linecap="round" stroke-linejoin="round"/>
<path d="M487.477 151.631H834.209" stroke="#E8EAED" stroke-miterlimit="10" stroke-linecap="round" stroke-linejoin="round"/>
<path d="M417.919 254.12H845.684" stroke="#E8EAED" stroke-miterlimit="10" stroke-linecap="round" stroke-linejoin="round"/>
<path d="M456.229 142.647H418.802V160.541H456.229V142.647Z" fill="#E8EAED" stroke="#E8EAED" stroke-miterlimit="10" stroke-linejoin="round"/>
<path d="M897.146 386.157H357.011V800H897.146V386.157Z" fill="white" stroke="#E8EAED" stroke-miterlimit="10" stroke-linecap="round" stroke-linejoin="round"/>
<path d="M835.62 439.458H418.801V606.899H835.62V439.458Z" stroke="#E8EAED" stroke-miterlimit="10" stroke-linecap="round" stroke-linejoin="round"/>
<path d="M487.477 727.207H834.208" stroke="#E8EAED" stroke-miterlimit="10" stroke-linecap="round" stroke-linejoin="round"/>
<path d="M452.256 718.22H414.829V736.114H452.256V718.22Z" fill="#E8EAED" stroke="#E8EAED" stroke-miterlimit="10" stroke-linejoin="round"/>
<path d="M415.888 665.986H835.62" stroke="#E8EAED" stroke-miterlimit="10" stroke-linecap="round" stroke-linejoin="round"/>
<path d="M1081 35H286V837H1081V35Z" stroke="#3C4043" stroke-miterlimit="10" stroke-linecap="round" stroke-linejoin="round"/>
<path d="M1194.4 523.336L1152.79 500.938L1102.52 460.018L1094.39 478.993C1094.39 478.993 1119.02 519.418 1135.07 529.524C1150.92 539.506 1180.3 557.533 1180.3 557.533" fill="#D2E3FC"/>
<path d="M1194.4 523.336L1152.79 500.938L1102.52 460.018L1094.39 478.993C1094.39 478.993 1119.02 519.418 1135.07 529.524C1150.92 539.506 1180.3 557.533 1180.3 557.533" stroke="#D2E3FC" stroke-miterlimit="10" stroke-linecap="round" stroke-linejoin="round"/>
<path d="M1095.24 475.281L1088.29 472.352C1084.8 470.867 1082.44 467.444 1082.32 463.566L1081.34 433C1081.34 433 1097.03 461.215 1101.21 463.69L1095.24 475.281Z" fill="#ECA476" stroke="#3C4043" stroke-miterlimit="10" stroke-linecap="round" stroke-linejoin="round"/>
<path d="M1194.4 523.338L1152.79 500.939L1102.52 459.978L1094.39 478.953" stroke="#3C4043" stroke-miterlimit="10" stroke-linecap="round" stroke-linejoin="round"/>
<path d="M1226.47 489.678C1226.47 478.046 1217.2 468.641 1205.74 468.641C1194.28 468.641 1190.05 473.838 1185.54 489.348C1185.05 493.679 1181.97 503.002 1184.2 506.343C1186.4 509.643 1192.25 509.189 1196.64 509.148L1193.1 519.378L1214.23 520.863L1217.97 505.353C1223.13 502.094 1226.47 496.608 1226.47 489.678Z" fill="#ECA476" stroke="#3C4043" stroke-miterlimit="10" stroke-linecap="round" stroke-linejoin="round"/>
<path d="M1202.25 492.234C1203.06 490.666 1204.32 489.346 1204.85 487.696C1205.42 486.005 1204.81 483.736 1203.06 483.406C1201.51 483.118 1200.09 484.561 1198.51 484.438C1197.49 482.911 1197.25 480.973 1197.78 479.24C1198.14 478.044 1198.91 476.848 1198.79 475.61C1198.67 474.208 1197.53 473.176 1196.76 472.021C1195.05 469.546 1194.93 466.081 1196.39 463.524C1196.64 463.07 1197 462.616 1197.53 462.616C1198.63 462.658 1198.55 464.514 1199.48 465.133C1200.05 463.111 1201.84 461.503 1203.91 461.214C1204.24 461.173 1204.6 461.173 1204.89 461.379C1205.25 461.626 1205.29 462.08 1205.46 462.493C1206.19 464.225 1208.67 464.019 1210.41 463.359C1212.16 462.699 1214.28 461.874 1215.7 463.07C1216.96 464.101 1216.88 466.123 1217.85 467.401C1218.83 468.721 1220.57 469.093 1221.96 469.835C1224.15 471.031 1225.98 472.681 1227.2 474.868C1229.68 479.24 1229.43 487.036 1229.07 490.171C1228.26 497.514 1222.08 503.784 1216.27 507.826C1211.06 511.498 1205.33 507.001 1202.81 502.051C1201.27 498.999 1200.66 495.369 1202.25 492.234Z" fill="#EA4335" stroke="#3C4043" stroke-miterlimit="10" stroke-linecap="round" stroke-linejoin="round"/>
<path d="M1202.94 463.69C1199.56 452.8 1196.11 445.829 1201.15 444.633C1205.94 443.56 1210.29 463.03 1210.29 463.03" fill="white"/>
<path d="M1202.94 463.69C1199.56 452.8 1196.11 445.829 1201.15 444.633C1205.94 443.56 1210.29 463.03 1210.29 463.03" stroke="#3C4043" stroke-miterlimit="10" stroke-linecap="round" stroke-linejoin="round"/>
<path d="M1202.94 463.689C1214.72 459.193 1227.85 465.257 1232.28 477.219C1236.71 489.182 1230.73 502.506 1218.95 507.002C1211.63 495.906 1205.7 477.343 1202.94 463.689Z" fill="white" stroke="#3C4043" stroke-miterlimit="10" stroke-linecap="round" stroke-linejoin="round"/>
<path d="M1172.13 637.723L1085.45 885.017H1121.09L1199.6 729.298L1213.83 885.017H1248.74C1249.39 866.743 1249.92 848.428 1250.36 830.154C1251.18 797.897 1251.87 765.639 1251.42 733.382C1251.22 717.212 1250.69 696.05 1249.23 679.922C1247.6 662.184 1246.42 647.87 1239.68 634.918C1205.78 634.918 1172.13 637.723 1172.13 637.723Z" fill="white" stroke="#3C4043" stroke-miterlimit="10" stroke-linecap="round" stroke-linejoin="round"/>
<path d="M1199.64 729.257C1205.09 715.686 1213.67 696.588 1213.67 696.588" stroke="#3C4043" stroke-miterlimit="10" stroke-linecap="round" stroke-linejoin="round"/>
<path d="M1103.41 885.017L1100.16 896.855L1100.65 920.079H1041.84C1050.9 903.497 1070.33 923.585 1085.69 885.058C1104.79 885.017 1103.41 885.017 1103.41 885.017Z" fill="white" stroke="#3C4043" stroke-miterlimit="10" stroke-linecap="round" stroke-linejoin="round"/>
<path d="M1103.08 885.017L1082.97 891.122C1082.97 891.122 1084.67 888.275 1085.65 885.017H1103.08Z" fill="#3C4043" stroke="#3C4043" stroke-miterlimit="10" stroke-linecap="round" stroke-linejoin="round"/>
<path d="M1080.2 896.855H1100.12" stroke="#3C4043" stroke-miterlimit="10" stroke-linecap="round" stroke-linejoin="round"/>
<path d="M1240.73 885.017L1246.79 920.038H1193.14C1199.6 903.29 1231.14 920.038 1222.89 885.017C1242.03 885.017 1240.73 885.017 1240.73 885.017Z" fill="white" stroke="#3C4043" stroke-miterlimit="10" stroke-linecap="round" stroke-linejoin="round"/>
<path d="M1242.8 897.062H1224.64" stroke="#3C4043" stroke-miterlimit="10" stroke-linecap="round" stroke-linejoin="round"/>
<path d="M1240.49 885.017L1224.07 891.122C1224.07 891.122 1223.87 888.523 1222.89 885.017H1240.49Z" fill="#3C4043" stroke="#3C4043" stroke-miterlimit="10" stroke-linecap="round" stroke-linejoin="round"/>
<path d="M1173.11 531.382L1146.65 588.513L1094.06 645.191L1103.13 663.382C1103.13 663.382 1152.87 628.649 1166.4 615.202C1179.24 602.414 1204.4 583.934 1204.4 583.934" fill="#D2E3FC"/>
<path d="M1173.11 531.382L1146.65 588.513L1094.06 645.191L1103.13 663.382C1103.13 663.382 1152.87 628.649 1166.4 615.202C1179.24 602.414 1204.4 583.934 1204.4 583.934" stroke="#D2E3FC" stroke-miterlimit="10" stroke-linecap="round" stroke-linejoin="round"/>
<path d="M1172.13 637.724L1160.96 576.426C1160.96 576.426 1174.9 521.482 1188.88 517.604C1188.88 517.604 1233.74 506.962 1241.63 543.839C1241.63 543.839 1256.95 609.055 1251.54 639.044L1172.13 637.724Z" fill="#D2E3FC" stroke="#D2E3FC" stroke-miterlimit="10" stroke-linecap="round" stroke-linejoin="round"/>
<path d="M1204.48 516.655C1180.95 513.314 1173.11 531.382 1173.11 531.382L1146.65 588.513L1135.15 600.929" stroke="#3C4043" stroke-miterlimit="10" stroke-linecap="round" stroke-linejoin="round"/>
<path d="M1094.06 645.148L1103.13 663.339C1103.13 663.339 1152.87 628.606 1166.4 615.159C1179.24 602.371 1198.43 576.384 1198.43 576.384" stroke="#3C4043" stroke-miterlimit="10" stroke-linecap="round" stroke-linejoin="round"/>
<path d="M1081.34 658.679C1074.27 664.495 1075.29 665.402 1062.89 673.24C1061.55 674.106 1058.05 679.716 1062.12 682.274C1070.33 687.471 1077.2 685.285 1084.8 680.046L1094.06 667.919L1101.58 661.071L1098.61 654.265L1093.41 644.942L1082.24 651.46L1081.34 658.679Z" fill="#ECA476" stroke="#3C4043" stroke-miterlimit="10" stroke-linecap="round" stroke-linejoin="round"/>
<path d="M1172.13 637.724L1251.54 638.92" stroke="#3C4043" stroke-miterlimit="10" stroke-linecap="round" stroke-linejoin="round"/>
<path d="M1291.21 920.08H1019" stroke="#3C4043" stroke-miterlimit="10" stroke-linecap="round" stroke-linejoin="round"/>
<path d="M285.985 646.549H165V276H285.985" fill="white"/>
<path d="M285.985 646.549H165V276H285.985" stroke="#3C4043" stroke-miterlimit="10" stroke-linecap="round" stroke-linejoin="round"/>
<path d="M195.684 488.851H285.986" stroke="#3C4043" stroke-miterlimit="10" stroke-linecap="round" stroke-linejoin="round"/>
<path d="M195.684 517.726H286.148" stroke="#3C4043" stroke-miterlimit="10" stroke-linecap="round" stroke-linejoin="round"/>
<path d="M284.888 458.861H191.416V306.236H284.359" fill="white"/>
<path d="M284.888 458.861H191.416V306.236H284.359" stroke="#3C4043" stroke-miterlimit="10" stroke-linecap="round" stroke-linejoin="round"/>
<path d="M212.101 599.772H194.87V609.466H212.101V599.772Z" fill="#BDC1C6" stroke="#BDC1C6" stroke-miterlimit="10" stroke-linecap="round" stroke-linejoin="round"/>
<path d="M284.156 606.083H346.539" stroke="#E8EAED" stroke-miterlimit="10" stroke-linecap="round" stroke-linejoin="round"/>
<path d="M229.13 606.083H284.156" stroke="#BDC1C6" stroke-miterlimit="10" stroke-linecap="round" stroke-linejoin="round"/>
<path d="M256.555 378.861L247.272 352.73C246.051 349.292 241.264 349.292 240.043 352.73L217.781 415.4C216.877 417.944 218.733 420.628 221.396 420.628H244.79C244.786 420.623 244.782 420.618 244.779 420.613H237.405C240.068 420.613 241.923 417.929 241.02 415.385L240.571 414.122H225.044L243.658 361.722L253.15 388.445L256.555 378.861Z" fill="#EA4335"/>
<path fill-rule="evenodd" clip-rule="evenodd" d="M268.561 352.73C269.169 351.018 270.662 350.158 272.158 350.151C272.17 350.151 272.181 350.151 272.193 350.151C273.689 350.158 275.182 351.018 275.79 352.73L297.593 414.107H297.569L298.023 415.385C298.927 417.929 297.071 420.613 294.408 420.613H294.778C294.666 420.623 294.552 420.628 294.437 420.628H249.914C249.799 420.628 249.685 420.623 249.572 420.613H249.917C247.395 420.613 245.596 418.204 246.182 415.787C246.214 415.658 246.253 415.529 246.299 415.4L268.561 352.73ZM272.175 361.723L253.562 414.122H262.271L259.278 405.696L262.683 396.112L269.075 414.107H269.067L269.521 415.385C270.425 417.929 268.569 420.613 265.906 420.613H278.419C275.756 420.613 273.9 417.929 274.804 415.385L275.253 414.122H275.271L281.668 396.113L285.073 405.697L282.078 414.122H290.789L272.175 361.723Z" fill="#EA4335"/>
<path d="M299.561 420.628H322.955C325.618 420.628 327.474 417.944 326.57 415.4L304.308 352.73C303.087 349.292 298.3 349.292 297.079 352.73L287.796 378.861L291.201 388.446L300.693 361.722L319.307 414.122H303.754L303.306 415.385C302.402 417.929 304.258 420.613 306.92 420.613H299.572C299.568 420.618 299.565 420.623 299.561 420.628Z" fill="#EA4335"/>
<path d="M304.428 352.73L300.813 361.722L311.667 392.279L311.655 392.313L315.06 401.897L315.072 401.863L319.426 414.122H310.717L313.698 405.731L310.293 396.147L303.454 415.4C302.55 417.944 304.406 420.628 307.069 420.628H323.075C325.737 420.628 327.593 417.944 326.689 415.4L304.428 352.73Z" fill="#EA4335"/>
<path d="M240.043 352.754L243.658 361.746L232.803 392.303L232.816 392.337L229.411 401.921L229.399 401.887L225.044 414.146H233.753L230.773 405.755L234.177 396.171L241.016 415.423C241.92 417.968 240.064 420.652 237.402 420.652H221.396C218.733 420.652 216.877 417.968 217.781 415.423L240.043 352.754Z" fill="#EA4335"/>
<path d="M299.599 420.652H322.961C325.62 420.652 327.473 417.967 326.57 415.422L304.34 352.731C303.12 349.292 298.34 349.292 297.12 352.731L287.85 378.871L291.25 388.459L300.73 361.726L319.318 414.144H303.786L303.338 415.407C302.436 417.952 304.289 420.637 306.948 420.637H299.61C299.606 420.642 299.602 420.647 299.599 420.652Z" fill="#FBBC05"/>
<path d="M304.459 352.731L300.849 361.726L311.688 392.293L311.676 392.327L315.076 401.915L315.088 401.881L319.437 414.144H310.74L313.716 405.75L310.316 396.162L303.487 415.422C302.584 417.967 304.437 420.652 307.097 420.652H323.08C325.739 420.652 327.592 417.967 326.69 415.422L304.459 352.731Z" fill="#FBBC05"/>
<path d="M272.234 350.151C270.74 350.158 269.249 351.018 268.642 352.731L246.411 415.422C246.365 415.551 246.326 415.68 246.294 415.809C245.709 418.227 247.505 420.637 250.024 420.637H249.68C249.792 420.647 249.906 420.652 250.021 420.652H264.897L262.361 414.144H253.663L272.251 361.727L290.839 414.144H282.141L285.131 405.716L281.731 396.129L275.342 414.144H275.324L274.876 415.407C273.974 417.952 275.827 420.637 278.486 420.637L278.649 420.652H294.482C294.597 420.652 294.711 420.647 294.823 420.637H294.453C297.112 420.637 298.965 417.952 298.063 415.407L297.61 414.129H297.633L275.861 352.731C275.253 351.018 273.763 350.158 272.269 350.151L272.234 350.151Z" fill="#FBBC05"/>
<path d="M299.516 420.652H322.949C325.616 420.652 327.475 417.967 326.57 415.422L304.271 352.731C303.048 349.292 298.253 349.292 297.03 352.731L287.732 378.871L291.143 388.459L300.651 361.726L319.295 414.144H303.717L303.267 415.407C302.362 417.952 304.221 420.637 306.888 420.637H299.527C299.524 420.642 299.52 420.647 299.516 420.652Z" fill="#34A853"/>
<path d="M304.391 352.731L300.77 361.726L311.643 392.293L311.63 392.327L315.04 401.915L315.053 401.881L319.414 414.144H310.691L313.676 405.75L310.266 396.162L303.416 415.422C302.511 417.967 304.37 420.652 307.037 420.652H323.069C325.736 420.652 327.595 417.967 326.689 415.422L304.391 352.731Z" fill="#34A853"/>
<path d="M274.719 415.407C273.814 417.952 275.673 420.637 278.34 420.637L293.579 420.652L290.73 414.144H282.005L285.004 405.716L281.594 396.129L275.187 414.144H275.168L274.719 415.407Z" fill="#34A853"/>
<path d="M319.542 414.144H319.423H310.856H304.066L303.613 415.422C302.712 417.967 304.563 420.652 307.218 420.652H321.924L319.542 414.144Z" fill="#3D81DC"/>
<path d="M310.856 414.144L313.829 405.75L310.434 396.162L304.066 414.144H310.856Z" fill="#3D81DC"/>
<rect opacity="0.7" x="287.176" y="350.611" width="48" height="80" fill="white"/>
</svg>
