<svg width="288" height="199" viewBox="0 0 288 199" fill="none" xmlns="http://www.w3.org/2000/svg">
<path d="M103.621 118.367H26.5847V173.356H103.621V118.367Z" fill="white" stroke="#34A853" stroke-miterlimit="10" stroke-linecap="round" stroke-linejoin="round"/>
<path d="M65.1028 173.355L50.8142 187.117H79.4106L65.1028 173.355Z" fill="white" stroke="#34A853" stroke-miterlimit="10" stroke-linecap="round" stroke-linejoin="round"/>
<path d="M239.497 138.348V159.249H74.0283V66.0762H240.819" fill="white"/>
<path d="M239.497 138.348V159.249H74.0283V66.0762H240.819" stroke="#3C4043" stroke-miterlimit="10" stroke-linecap="round" stroke-linejoin="round"/>
<path d="M85.6525 74.8608C85.6525 76.0748 84.6676 77.0595 83.4519 77.0595C82.2361 77.0595 81.2512 76.0748 81.2512 74.8608C81.2512 73.6468 82.2361 72.6621 83.4519 72.6621C84.6676 72.6621 85.6525 73.6468 85.6525 74.8608Z" fill="white" stroke="#3C4043"/>
<path d="M96.4169 74.8608C96.4169 76.0748 95.432 77.0595 94.2162 77.0595C93.0005 77.0595 92.0156 76.0748 92.0156 74.8608C92.0156 73.6468 93.0005 72.6621 94.2162 72.6621C95.432 72.6621 96.4169 73.6468 96.4169 74.8608Z" fill="white" stroke="#3C4043"/>
<path d="M84.4097 96.3945H149.915" stroke="#3C4043" stroke-miterlimit="10" stroke-linecap="round" stroke-linejoin="round"/>
<path d="M84.4096 110.672H152.884" stroke="#3C4043" stroke-miterlimit="10" stroke-linecap="round" stroke-linejoin="round"/>
<path d="M84.4097 117.791H152.884" stroke="#3C4043" stroke-miterlimit="10" stroke-linecap="round" stroke-linejoin="round"/>
<path d="M84.4097 124.932H148.479" stroke="#3C4043" stroke-miterlimit="10" stroke-linecap="round" stroke-linejoin="round"/>
<path d="M84.4097 103.533H141.852" stroke="#3C4043" stroke-miterlimit="10" stroke-linecap="round" stroke-linejoin="round"/>
<path d="M74.1816 83.416H173.379" stroke="#3C4043" stroke-miterlimit="10" stroke-linecap="round" stroke-linejoin="round"/>
<path d="M119.557 169.832H169.854" stroke="#3C4043" stroke-miterlimit="10" stroke-linecap="round" stroke-linejoin="round"/>
<path d="M175.332 169.832H186.326" stroke="#3C4043" stroke-miterlimit="10" stroke-linecap="round" stroke-linejoin="round"/>
<path d="M193.241 169.832H201.975" stroke="#3C4043" stroke-miterlimit="10" stroke-linecap="round" stroke-linejoin="round"/>
<path d="M63.4363 81.6934V113.446" stroke="#3C4043" stroke-miterlimit="10" stroke-linecap="round" stroke-linejoin="round"/>
<path d="M248.385 138.598V170.331" stroke="#3C4043" stroke-miterlimit="10" stroke-linecap="round" stroke-linejoin="round"/>
<path d="M198.796 80.3164H180.868V132.836H198.796V80.3164Z" fill="#D2E3FC" stroke="#D2E3FC" stroke-miterlimit="10"/>
<path d="M149.398 136.262H84.084V146.004H149.398V136.262Z" fill="#D2E3FC" stroke="#D2E3FC" stroke-miterlimit="10"/>
<path d="M74.5837 159.612L103.084 172.072V159.459C103.084 159.459 72.2278 159.612 74.5837 159.612Z" fill="#3C4043" stroke="#3C4043" stroke-miterlimit="10"/>
<path d="M261.715 74.3457H191.555V138.368H261.715V74.3457Z" fill="white" stroke="#3C4043" stroke-miterlimit="10" stroke-linecap="round" stroke-linejoin="round"/>
<path d="M255.184 80.8535H198.125V114.157H255.184V80.8535Z" fill="#34A853" stroke="#34A853" stroke-miterlimit="10"/>
<path d="M252.948 115.479H201.362C199.693 115.479 198.328 114.11 198.328 112.437V12.0423C198.328 10.369 199.693 9 201.362 9H252.948C254.617 9 255.983 10.369 255.983 12.0423V112.437C255.983 114.11 254.617 115.479 252.948 115.479Z" fill="white" stroke="#3C4043" stroke-miterlimit="10" stroke-linecap="round" stroke-linejoin="round"/>
<path d="M218.052 109.395H236.259" stroke="#3C4043" stroke-miterlimit="10" stroke-linecap="round" stroke-linejoin="round"/>
<path d="M239.293 60.7166C239.293 58.0394 238.444 55.6056 236.957 53.5977V53.5673L244.33 48.2129C246.91 51.7115 248.397 56.0315 248.397 60.7166C248.397 71.0602 241.053 79.6698 231.313 81.6168L229.522 72.6422C235.106 71.547 239.293 66.6185 239.293 60.7166Z" fill="#34A853" stroke="#34A853" stroke-miterlimit="10" stroke-linecap="round" stroke-linejoin="round"/>
<path d="M221.875 40.0912C223.575 39.6653 225.335 39.4219 227.155 39.4219C234.226 39.4219 240.507 42.89 244.33 48.214L236.957 53.5684C234.772 50.5261 231.191 48.5486 227.155 48.5486C226.123 48.5486 225.122 48.6703 224.151 48.9441L221.875 40.0912Z" fill="#4285F4" stroke="#4285F4" stroke-miterlimit="10" stroke-linecap="round" stroke-linejoin="round"/>
<path d="M205.914 60.7181C205.914 54.5423 208.554 48.975 212.741 45.1113L218.901 51.8043C216.504 54.0251 215.017 57.1891 215.017 60.7181C215.017 67.4415 220.449 72.8871 227.155 72.8871C227.975 72.8871 228.763 72.7958 229.522 72.6437L231.312 81.6184C229.977 81.8618 228.581 82.0139 227.155 82.0139C215.412 82.0139 205.914 72.4916 205.914 60.7181Z" fill="#FBBC04" stroke="#FBBC04" stroke-miterlimit="10" stroke-linecap="round" stroke-linejoin="round"/>
<path d="M212.741 45.1115C215.29 42.7081 218.416 40.9741 221.875 40.0918L224.151 48.9448C222.148 49.4315 220.358 50.4355 218.901 51.8045L212.741 45.1115Z" fill="#EA4335" stroke="#EA4335" stroke-miterlimit="10" stroke-linecap="round" stroke-linejoin="round"/>
<path d="M192.053 138.865L238.865 151.536V138.846C238.865 138.827 190.866 140.033 192.053 138.865Z" fill="#3C4043" stroke="#3C4043" stroke-miterlimit="10"/>
<path d="M197.551 121.812H253.518" stroke="#3C4043" stroke-miterlimit="10" stroke-linecap="round" stroke-linejoin="round"/>
<path d="M198.029 128.588H247.101" stroke="#3C4043" stroke-miterlimit="10" stroke-linecap="round" stroke-linejoin="round"/>
<path d="M227 87C240.807 87 252 75.8071 252 62C252 48.1929 240.807 37 227 37C213.193 37 202 48.1929 202 62C202 75.8071 213.193 87 227 87Z" fill="#444746" stroke="#FBBC04" stroke-miterlimit="10" stroke-linecap="round" stroke-linejoin="round"/>
<path d="M227 54.3652V64.5855" stroke="white" stroke-miterlimit="10" stroke-linecap="round" stroke-linejoin="round"/>
<path d="M227 68.9966C227.167 68.9966 227.303 68.8609 227.303 68.6936C227.303 68.5263 227.167 68.3906 227 68.3906C226.832 68.3906 226.697 68.5263 226.697 68.6936C226.697 68.8609 226.832 68.9966 227 68.9966Z" stroke="white" stroke-miterlimit="10" stroke-linecap="round" stroke-linejoin="round"/>
<path d="M224.28 50.7365C225.485 48.6451 228.507 48.6451 229.712 50.7365L234.634 59.257L240.457 69.3442C241.262 70.7409 240.257 72.4849 238.646 72.4849H227H215.353C213.742 72.4849 212.737 70.7409 213.543 69.3442L219.366 59.257L224.28 50.7365Z" stroke="white" stroke-miterlimit="10" stroke-linecap="round" stroke-linejoin="round"/>
</svg>
