<svg width="16" height="16" viewBox="0 0 16 16" fill="none" xmlns="http://www.w3.org/2000/svg">
<g clip-path="url(#clip0_5420_29128)">
<path d="M2.86987 6.37396L4.42439 7.03164C4.6104 6.65962 4.80305 6.30089 5.00235 5.95544C5.20165 5.60999 5.42087 5.26454 5.66003 4.9191L4.54397 4.69987L2.86987 6.37396ZM5.69989 8.02813L7.97187 10.2802C8.5299 10.0676 9.12779 9.74208 9.76554 9.30363C10.4033 8.86517 11.0012 8.36693 11.5592 7.8089C12.4893 6.87885 13.2134 5.84915 13.7316 4.7198C14.263 3.57716 14.4955 2.52753 14.4291 1.57091C13.4725 1.50448 12.4228 1.73699 11.2802 2.26845C10.1376 2.78662 9.10122 3.51073 8.17117 4.44078C7.61314 4.99882 7.1149 5.59671 6.67644 6.23446C6.23799 6.8722 5.91247 7.4701 5.69989 8.02813ZM9.24737 6.7327C8.94178 6.42711 8.78899 6.05509 8.78899 5.61663C8.78899 5.1649 8.94178 4.78623 9.24737 4.48064C9.55296 4.17506 9.93162 4.02226 10.3834 4.02226C10.8351 4.02226 11.2138 4.17506 11.5194 4.48064C11.8249 4.78623 11.9777 5.1649 11.9777 5.61663C11.9777 6.05509 11.8249 6.42711 11.5194 6.7327C11.2138 7.03829 10.8351 7.19108 10.3834 7.19108C9.93162 7.19108 9.55296 7.03829 9.24737 6.7327ZM9.62604 13.1301L11.3001 11.456L11.0809 10.34C10.7355 10.5791 10.39 10.7984 10.0446 10.9976C9.69911 11.1837 9.34038 11.3697 8.96836 11.5557L9.62604 13.1301ZM15.864 0.116042C16.1165 1.7237 15.957 3.29151 15.3857 4.81945C14.8277 6.3341 13.8578 7.78233 12.476 9.16412L12.8746 11.1372C12.9277 11.4029 12.9144 11.662 12.8347 11.9144C12.755 12.1669 12.6221 12.3861 12.4361 12.5721L9.08793 15.9203L7.41384 11.9941L4.00587 8.58616L0.0797186 6.91206L3.40797 3.56388C3.59399 3.37787 3.81321 3.245 4.06565 3.16528C4.33138 3.08557 4.59711 3.07228 4.86284 3.12542L6.83588 3.52402C8.21767 2.14223 9.6659 1.16567 11.1806 0.594355C12.6952 0.0230371 14.2564 -0.136401 15.864 0.116042ZM1.49473 11.1172C1.95975 10.6522 2.52443 10.4197 3.18875 10.4197C3.86636 10.4064 4.43768 10.6323 4.9027 11.0973C5.36773 11.5623 5.5936 12.1336 5.58031 12.8113C5.58031 13.4756 5.3478 14.0402 4.88277 14.5053C4.55061 14.8374 3.99258 15.1231 3.20868 15.3623C2.43806 15.6014 1.3685 15.814 0 16C0.18601 14.6315 0.398594 13.5619 0.63775 12.7913C0.876906 12.0074 1.16256 11.4494 1.49473 11.1172ZM2.63072 12.2333C2.49785 12.3662 2.36499 12.612 2.23212 12.9707C2.09926 13.3161 2.00625 13.6682 1.95311 14.027C2.31184 13.9738 2.66393 13.8875 3.00938 13.7679C3.36812 13.635 3.61392 13.5021 3.74678 13.3693C3.90622 13.2098 3.99258 13.0172 4.00587 12.7913C4.01915 12.5655 3.94608 12.3728 3.78664 12.2134C3.6272 12.0539 3.43455 11.9808 3.20868 11.9941C2.98281 11.9941 2.79016 12.0739 2.63072 12.2333Z" fill="#188038"/>
<path d="M2.87023 6.37418L4.42475 7.03186L4.00622 8.58637L7.4142 11.9943L8.96872 11.5559L9.6264 13.1303L11.3005 11.4562L11.0813 10.3402L12.4763 9.16433L12.8749 11.1374C12.9281 11.4031 12.9148 11.6622 12.8351 11.9146C12.7554 12.1671 12.6225 12.3863 12.4365 12.5723L9.08829 15.9205L7.4142 11.9943L4.00622 8.58637L0.0800781 6.91228L3.40833 3.56409C3.59435 3.37808 3.81357 3.24522 4.06601 3.1655C4.33174 3.08578 4.59747 3.07249 4.8632 3.12564L6.83624 3.52423L5.66039 4.91931L4.54433 4.70008L2.87023 6.37418Z" fill="#1967D2"/>
<path fill-rule="evenodd" clip-rule="evenodd" d="M4.42438 7.03164C4.61039 6.65962 4.80305 6.30089 5.00234 5.95544C5.20164 5.60999 5.42087 5.26454 5.66002 4.9191L6.83587 3.52402C8.21767 2.14223 9.66589 1.16567 11.1805 0.594355C12.6952 0.0230371 14.2564 -0.1364 15.864 0.116042C16.1165 1.7237 15.957 3.29151 15.3857 4.81945C14.8277 6.3341 13.8578 7.78233 12.476 9.16412L11.0809 10.34C10.7354 10.5791 10.39 10.7984 10.0446 10.9976C9.6991 11.1837 9.34037 11.3697 8.96835 11.5557L7.41384 11.9941L4.00586 8.58616L4.42438 7.03164ZM7.97187 10.2802L5.69988 8.02813C5.91247 7.4701 6.23798 6.8722 6.67644 6.23446C7.11489 5.59671 7.61313 4.99882 8.17116 4.44078C9.10121 3.51073 10.1376 2.78662 11.2802 2.26845C12.4228 1.73699 13.4725 1.50448 14.4291 1.57091C14.4955 2.52753 14.263 3.57716 13.7315 4.7198C13.2134 5.84915 12.4893 6.87885 11.5592 7.8089C11.0012 8.36693 10.4033 8.86517 9.76554 9.30363C9.12779 9.74208 8.5299 10.0676 7.97187 10.2802Z" fill="#188038"/>
<path d="M9.24745 6.7329C8.94186 6.42731 8.78906 6.05529 8.78906 5.61684C8.78906 5.1651 8.94186 4.78643 9.24745 4.48084C9.55303 4.17526 9.9317 4.02246 10.3834 4.02246C10.8352 4.02246 11.2138 4.17526 11.5194 4.48084C11.825 4.78643 11.9778 5.1651 11.9778 5.61684C11.9778 6.05529 11.825 6.42731 11.5194 6.7329C11.2138 7.03849 10.8352 7.19128 10.3834 7.19128C9.9317 7.19128 9.55303 7.03849 9.24745 6.7329Z" fill="white"/>
</g>
<defs>
<clipPath id="clip0_5420_29128">
<rect width="16" height="16" fill="white"/>
</clipPath>
</defs>
</svg>
