<svg width="16" height="16" viewBox="0 0 16 16" fill="none" xmlns="http://www.w3.org/2000/svg">
<g id="Frame 424">
<path id="icon" d="M14.4712 4.13139C14.5625 3.90314 14.6081 3.66729 14.6081 3.42383H12.7822L7.53251 8.67347L4.93052 6.0943L3.65234 7.3953L6.23152 9.97447C6.58149 10.3244 7.00755 10.4994 7.50969 10.4994C8.02705 10.4994 8.46071 10.3244 8.81069 9.97447L14.0832 4.702C14.2505 4.53462 14.3799 4.34442 14.4712 4.13139Z" fill="#188038"/>
<path id="icon_2" d="M2.12268 13.786C3.5378 15.262 5.27247 16 7.32668 16C9.36567 16 11.0851 15.2924 12.485 13.8773C13.9001 12.447 14.6077 10.7123 14.6077 8.67332H12.7817C12.7817 10.195 12.2492 11.4883 11.184 12.5535C10.1341 13.6186 8.84831 14.1512 7.32668 14.1512C5.78982 14.1512 4.48883 13.6034 3.42368 12.5078C2.35854 11.3971 1.82596 10.058 1.82596 8.49073V1.82596H12.7817H14.6077C14.6077 1.32382 14.4251 0.897764 14.0599 0.547788C13.7099 0.182596 13.2839 0 12.7817 0H1.82596C1.32382 0 0.890157 0.182596 0.524965 0.547788C0.174988 0.897764 0 1.32382 0 1.82596V8.42225C0 10.5069 0.70756 12.2948 2.12268 13.786Z" fill="#1967D2"/>
</g>
</svg>
