<svg width="20" height="16" viewBox="0 0 20 16" fill="none" xmlns="http://www.w3.org/2000/svg">
  <path
      d="M5 12C5.28333 12 5.51667 11.9083 5.7 11.725C5.9 11.525 6 11.2833 6 11C6 10.7167 5.9 10.4833 5.7 10.3C5.51667 10.1 5.28333 10 5 10C4.71667 10 4.475 10.1 4.275 10.3C4.09167 10.4833 4 10.7167 4 11C4 11.2833 4.09167 11.525 4.275 11.725C4.475 11.9083 4.71667 12 5 12ZM4 9H6V4H4V9ZM8 11H16V9H8V11ZM8 7H16V5H8V7ZM2 16C1.45 16 0.975 15.8083 0.575 15.425C0.191667 15.025 5.96046e-08 14.55 5.96046e-08 14V2C5.96046e-08 1.45 0.191667 0.983333 0.575 0.599998C0.975 0.199999 1.45 -9.53674e-07 2 -9.53674e-07H18C18.55 -9.53674e-07 19.0167 0.199999 19.4 0.599998C19.8 0.983333 20 1.45 20 2V14C20 14.55 19.8 15.025 19.4 15.425C19.0167 15.8083 18.55 16 18 16H2ZM2 14H18V2H2V14ZM2 14V2V14Z"
      fill="#444746"/>
</svg>
