<svg width="236" height="151" viewBox="0 0 192 151" fill="none" xmlns="http://www.w3.org/2000/svg">
<path d="M155.345 66.729C155.345 66.729 198.254 64.929 204.29 20.4004" stroke="#BDC1C6" stroke-linecap="round" stroke-linejoin="round"/>
<path d="M60.5877 67.2299C60.5877 67.2299 45.9986 37.6442 37.7601 52.1585C37.7601 52.1585 30.3654 27.6299 11.6284 28.7585" stroke="#BDC1C6" stroke-linecap="round" stroke-linejoin="round"/>
<path d="M181.248 38.4583C182.362 38.4583 183.265 37.5564 183.265 36.444C183.265 35.3315 182.362 34.4297 181.248 34.4297C180.134 34.4297 179.231 35.3315 179.231 36.444C179.231 37.5564 180.134 38.4583 181.248 38.4583Z" fill="#EA4335" stroke="#EA4335" stroke-linejoin="round"/>
<path d="M25.4311 65.1574C26.4817 65.1574 27.3334 64.3068 27.3334 63.2574C27.3334 62.2081 26.4817 61.3574 25.4311 61.3574C24.3805 61.3574 23.5288 62.2081 23.5288 63.2574C23.5288 64.3068 24.3805 65.1574 25.4311 65.1574Z" fill="#FBBC04" stroke="#FBBC04" stroke-miterlimit="10"/>
<path d="M201.845 63.3009C202.524 63.3009 203.075 62.7508 203.075 62.0723C203.075 61.3938 202.524 60.8438 201.845 60.8438C201.165 60.8438 200.615 61.3938 200.615 62.0723C200.615 62.7508 201.165 63.3009 201.845 63.3009Z" fill="#4285F4" stroke="#4285F4" stroke-miterlimit="10"/>
<path d="M47.629 27.4435C48.3083 27.4435 48.8591 26.8934 48.8591 26.2149C48.8591 25.5364 48.3083 24.9863 47.629 24.9863C46.9496 24.9863 46.3989 25.5364 46.3989 26.2149C46.3989 26.8934 46.9496 27.4435 47.629 27.4435Z" fill="#E8EAED" stroke="#E8EAED" stroke-linecap="round" stroke-linejoin="round"/>
<path d="M100.279 124.242C100.958 124.242 101.509 123.692 101.509 123.014C101.509 122.335 100.958 121.785 100.279 121.785C99.5995 121.785 99.0488 122.335 99.0488 123.014C99.0488 123.692 99.5995 124.242 100.279 124.242Z" fill="#E8EAED" stroke="#E8EAED" stroke-linecap="round" stroke-linejoin="round"/>
<path d="M164.371 16.8145H70.2568V104.4H164.371V16.8145Z" fill="white" stroke="#3C4043" stroke-linecap="round" stroke-linejoin="round"/>
<path d="M117.314 84.3141C130.419 84.3141 141.042 73.7032 141.042 60.6141C141.042 47.5249 130.419 36.9141 117.314 36.9141C104.209 36.9141 93.585 47.5249 93.585 60.6141C93.585 73.7032 104.209 84.3141 117.314 84.3141Z" fill="#34A853" stroke="#34A853" stroke-linecap="round" stroke-linejoin="round"/>
<path d="M109.976 62.8148L113.623 66.4719L124.665 55.4434" stroke="white" stroke-linecap="round" stroke-linejoin="round"/>
<path d="M181.777 136.413L174.626 116.142L178.316 104.056C178.316 104.056 180.347 96.456 174.154 92.6275C169.863 89.9418 158.95 84.2132 158.95 84.2132C158.95 84.2132 150.211 80.5132 149.195 84.7418C148.18 88.9703 150.983 96.6275 150.983 96.6275L152.413 99.9989L153.743 101.013L156.075 100.213L156.232 104.985L145.891 105.085C146.778 107.57 154.215 115.999 157.047 119.899C159.879 123.799 163.555 138.27 163.555 138.27C163.555 138.27 165.386 141.127 170.564 142.27C176.657 143.542 179.575 137.456 181.777 136.413Z" fill="#A06549" stroke="#A06549" stroke-linecap="round" stroke-linejoin="round"/>
<path d="M174.154 97.2567L166.344 96.2138C165.671 96.0893 164.979 96.1085 164.314 96.2703C163.649 96.4321 163.026 96.7327 162.485 97.1524C161.945 97.5721 161.499 98.1014 161.178 98.7054C160.857 99.3094 160.668 99.9744 160.623 100.657C160.264 102.583 160.025 104.529 159.908 106.485C159.899 106.736 159.978 106.983 160.133 107.181C160.287 107.379 160.506 107.518 160.752 107.571C161.538 107.742 162.811 107.571 163.999 105.442C165.429 102.985 165.758 102.128 165.758 102.128L169.791 102.871" stroke="#3C4043" stroke-linecap="round" stroke-linejoin="round"/>
<path d="M170.721 91.2275L160.809 90.4989C160.809 90.4989 156.303 90.1703 156.017 96.5989C155.788 99.633 155.874 102.683 156.275 105.699C156.275 105.699 158.249 107.885 160.022 103.785" stroke="#3C4043" stroke-linecap="round" stroke-linejoin="round"/>
<path d="M163.713 87.2429C163.713 87.2429 152.27 85.0714 151.855 88.4429C151.567 91.6295 151.476 94.8308 151.584 98.0286C151.584 98.0286 152.542 103.071 155.403 100.214" stroke="#3C4043" stroke-linecap="round" stroke-linejoin="round"/>
<path d="M181.777 136.412L174.568 116.141L178.259 104.041" stroke="#3C4043" stroke-linecap="round" stroke-linejoin="round"/>
<path d="M150.926 96.5563C150.926 96.5563 148.065 88.8705 149.138 84.6705C150.21 80.4705 158.892 84.142 158.892 84.142" stroke="#3C4043" stroke-linecap="round" stroke-linejoin="round"/>
<path d="M149.338 104.414H77.7085" stroke="#3C4043" stroke-linecap="round" stroke-linejoin="round"/>
<path d="M52.1343 136.413L59.2858 116.142L55.5956 104.056C55.5956 104.056 53.5503 96.456 59.7435 92.6275C64.0344 89.9418 74.9476 84.2132 74.9476 84.2132C74.9476 84.2132 83.7011 80.5132 84.7023 84.7418C85.7035 88.9703 82.9573 96.556 82.9573 96.556L81.527 99.9275L80.2111 100.942L77.8654 100.142L77.7081 104.913L88.0492 105.013C87.1624 107.499 79.7391 115.927 76.8928 119.827C74.0465 123.727 70.3992 138.199 70.3992 138.199C70.3992 138.199 68.5542 141.056 63.3908 142.199C57.2119 143.542 53.4359 138.97 52.1343 136.413Z" fill="#A06549" stroke="#A06549" stroke-linecap="round" stroke-linejoin="round"/>
<path d="M59.7437 97.2567L67.5531 96.2138C68.2263 96.0893 68.9182 96.1085 69.5833 96.2703C70.2485 96.4321 70.8718 96.7327 71.4123 97.1524C71.9528 97.5721 72.3981 98.1014 72.719 98.7054C73.04 99.3094 73.2292 99.9744 73.2743 100.657C73.6337 102.583 73.8726 104.529 73.9895 106.485C74.0021 106.735 73.9257 106.981 73.7738 107.18C73.6219 107.379 73.4044 107.517 73.1599 107.571C72.3589 107.742 71.1003 107.571 69.8988 105.442C68.4685 102.985 68.1538 102.128 68.1538 102.128L64.1061 102.871" stroke="#3C4043" stroke-linecap="round" stroke-linejoin="round"/>
<path d="M63.1904 91.2275L73.0881 90.4989C73.0881 90.4989 77.5936 90.1703 77.8796 96.5989C78.1192 99.6327 78.0329 102.683 77.6222 105.699C77.6222 105.699 75.6484 107.885 73.8748 103.785" stroke="#3C4043" stroke-linecap="round" stroke-linejoin="round"/>
<path d="M70.1992 87.2429C70.1992 87.2429 81.6416 85.0714 82.0421 88.4429C82.3384 91.629 82.4292 94.8308 82.3139 98.0286C82.3139 98.0286 81.3699 103.071 78.5093 100.214" stroke="#3C4043" stroke-linecap="round" stroke-linejoin="round"/>
<path d="M52.1343 136.412L59.343 116.141L55.6528 104.041" stroke="#3C4043" stroke-linecap="round" stroke-linejoin="round"/>
<path d="M82.9575 96.5563C82.9575 96.5563 85.8181 88.8705 84.7454 84.6705C83.6727 80.4705 74.9907 84.142 74.9907 84.142" stroke="#3C4043" stroke-linecap="round" stroke-linejoin="round"/>
</svg>
