<svg width="107" height="107" viewBox="0 0 107 107" fill="none" xmlns="http://www.w3.org/2000/svg">
<path d="M45.7174 97.6208C22.2228 97.6208 3.17659 78.5746 3.17659 55.0799C3.17659 31.5853 22.2228 12.5391 45.7174 12.5391C69.2121 12.5391 88.2583 31.5853 88.2583 55.0799C88.2583 78.5746 69.2121 97.6208 45.7174 97.6208Z" fill="#D2E3FC"/>
<path d="M28.7562 24.8184H99.8945V85.0644H28.7562V24.8184Z" fill="white" stroke="#3C4043" stroke-miterlimit="10" stroke-linecap="round" stroke-linejoin="round"/>
<path d="M84.1875 38.9199V73.6364" stroke="#D0D1D2" stroke-miterlimit="10" stroke-linecap="round" stroke-linejoin="round"/>
<path d="M71.8486 38.9199V73.6364" stroke="#D0D1D2" stroke-miterlimit="10" stroke-linecap="round" stroke-linejoin="round"/>
<path d="M59.5103 38.7949V73.5866" stroke="#D0D1D2" stroke-miterlimit="10" stroke-linecap="round" stroke-linejoin="round"/>
<path d="M47.1719 38.7949V73.5866" stroke="#D0D1D2" stroke-miterlimit="10" stroke-linecap="round" stroke-linejoin="round"/>
<path d="M46.8626 55.4896C45.1175 55.4896 43.7028 54.0749 43.7028 52.3298C43.7028 50.5846 45.1175 49.1699 46.8626 49.1699C48.6078 49.1699 50.0225 50.5846 50.0225 52.3298C50.0225 54.0749 48.6078 55.4896 46.8626 55.4896Z" fill="#4285F4" stroke="#4285F4" stroke-miterlimit="10"/>
<path d="M59.7279 69.5072C57.9827 69.5072 56.568 68.0925 56.568 66.3473C56.568 64.6022 57.9827 63.1875 59.7279 63.1875C61.473 63.1875 62.8877 64.6022 62.8877 66.3473C62.8877 68.0925 61.473 69.5072 59.7279 69.5072Z" fill="#FE2C25" stroke="#FC2C25" stroke-miterlimit="10" stroke-linejoin="round"/>
<path d="M71.64 61.7005C69.8948 61.7005 68.4801 60.2858 68.4801 58.5407C68.4801 56.7956 69.8948 55.3809 71.64 55.3809C73.3851 55.3809 74.7998 56.7956 74.7998 58.5407C74.7998 60.2858 73.3851 61.7005 71.64 61.7005Z" fill="#FBBC04" stroke="#FBBC04" stroke-miterlimit="10"/>
<path d="M84.1956 54.5521C82.4505 54.5521 81.0358 53.1374 81.0358 51.3923C81.0358 49.6471 82.4505 48.2324 84.1956 48.2324C85.9408 48.2324 87.3555 49.6471 87.3555 51.3923C87.3555 53.1374 85.9408 54.5521 84.1956 54.5521Z" fill="#34A853" stroke="#34A853" stroke-miterlimit="10" stroke-linecap="round" stroke-linejoin="round"/>
<path d="M84.1958 48.2246C82.4487 48.2246 81.036 49.6373 81.036 51.3845" stroke="#3C4043" stroke-miterlimit="10" stroke-linecap="round" stroke-linejoin="round"/>
<path d="M71.6396 55.3809C69.8925 55.3809 68.4798 56.7936 68.4798 58.5407C68.4798 60.2878 69.8925 61.7005 71.6396 61.7005" stroke="#3C4043" stroke-miterlimit="10" stroke-linecap="round" stroke-linejoin="round"/>
<path d="M59.7275 63.1875C57.9804 63.1875 56.5677 64.6002 56.5677 66.3473C56.5677 68.0945 57.9804 69.5072 59.7275 69.5072" stroke="#3C4043" stroke-miterlimit="10" stroke-linecap="round" stroke-linejoin="round"/>
<path d="M46.8628 49.1699C45.1157 49.1699 43.7029 50.5827 43.7029 52.3298C43.7029 54.0769 45.1157 55.4896 46.8628 55.4896" stroke="#3C4043" stroke-miterlimit="10" stroke-linecap="round" stroke-linejoin="round"/>
<mask id="mask0_1213_79743" style="mask-type:alpha" maskUnits="userSpaceOnUse" x="3" y="12" width="86" height="86">
<path d="M45.7174 97.6208C22.2228 97.6208 3.17659 78.5746 3.17659 55.0799C3.17659 31.5853 22.2228 12.5391 45.7174 12.5391C69.2121 12.5391 88.2583 31.5853 88.2583 55.0799C88.2583 78.5746 69.2121 97.6208 45.7174 97.6208Z" fill="#D2E3FC"/>
</mask>
<g mask="url(#mask0_1213_79743)">
<path d="M27.2348 45.0234L33.4208 47.4477C34.8168 47.9492 35.9035 49.0694 36.3633 50.4821L37.9265 55.2553C37.9265 55.2553 38.4364 56.551 37.1741 56.7684C35.9119 56.9941 34.6162 56.4758 33.7384 54.3776C33.5713 53.9763 33.4291 53.642 33.3121 53.341C32.9025 52.3128 31.9913 51.5772 30.9046 51.3849L26.5494 50.5908" fill="#DD8861"/>
<path d="M26.5075 52.7215C27.544 52.9221 29.9515 52.1447 30.4949 53.407C30.6286 53.7246 30.5952 53.9503 30.6621 54.2847C30.8627 55.2711 31.2138 56.2742 31.9327 57.0182C32.5179 57.6201 33.5293 58.3641 34.3653 57.8207C34.9421 57.4445 34.5575 55.5553 34.5575 55.5553L33.9055 51.5177C33.195 50.2137 32.0163 49.2523 30.6955 48.918L25.9808 45.9922" fill="#DD8861"/>
<path d="M28.8734 47.4232L33.7302 48.5266C34.9423 48.8025 35.9287 49.6802 36.3383 50.8506C36.4553 51.1849 36.5975 51.5778 36.7646 52.0292C37.6507 54.4284 39.0802 55.0804 40.5096 54.8881C41.9391 54.6959 41.4292 53.2246 41.4292 53.2246L39.9078 47.791C39.4564 46.186 38.2944 44.8736 36.7479 44.2383" fill="#DD8861"/>
<path d="M26.5408 50.5996L30.896 51.3938C31.9827 51.5944 32.8939 52.33 33.3035 53.3498C33.4205 53.6424 33.5626 53.9852 33.7298 54.3864C34.6076 56.4846 35.9116 57.0029 37.1655 56.7772" stroke="#3C4043" stroke-miterlimit="10" stroke-linecap="round" stroke-linejoin="round"/>
<path d="M28.873 47.4219L33.7298 48.5253C34.9419 48.8012 35.9283 49.6789 36.3379 50.8492C36.455 51.1836 36.5971 51.5765 36.7643 52.0279C37.6504 54.427 39.0798 55.0791 40.5093 54.8868" stroke="#3C4043" stroke-miterlimit="10" stroke-linecap="round" stroke-linejoin="round"/>
<path d="M2.29043 90.5652C9.02809 81.4284 13.6508 74.0638 17.8222 62.6365C21.8848 51.5353 23.8994 47.9073 27.0258 44.6472C28.6977 42.9 30.9965 42.783 33.2786 42.9168C35.8951 43.0672 38.1271 43.5604 41.2451 43.9868C42.7749 44.1957 48.8521 45.0735 48.9107 46.1936C49.1029 50.0975 36.8648 48.459 35.9286 48.4005C33.5378 48.2417 32.2672 49.4789 31.03 51.4935C29.0488 54.7118 26.9004 61.1402 32.0916 62.8539C33.939 63.4641 35.6193 62.6282 37.2075 61.7504C39.2054 60.6386 41.0779 59.46 42.9588 58.1726C44.7143 56.9689 46.988 55.5478 49.1865 56.4004C49.1865 56.4004 52.3631 56.8853 47.1886 60.5634C42.3318 64.0158 27.6946 78.9791 26.1147 81.8129C24.5347 84.6468 21.7427 88.4168 16.9862 98.6654" fill="#E6AE82"/>
<path d="M2.29043 90.5652C9.02809 81.4284 13.6508 74.0638 17.8222 62.6365C21.8848 51.5353 23.8994 47.9073 27.0258 44.6472C28.6977 42.9 30.9965 42.783 33.2786 42.9168C35.8951 43.0672 38.1271 43.5604 41.2451 43.9868C42.7749 44.1957 48.8521 45.0735 48.9107 46.1936C49.1029 50.0975 36.8648 48.459 35.9286 48.4005C33.5378 48.2417 32.2672 49.4789 31.03 51.4935C29.0488 54.7118 26.9004 61.1402 32.0916 62.8539C33.939 63.4641 35.6193 62.6282 37.2075 61.7504C39.2054 60.6386 41.0779 59.46 42.9588 58.1726C44.7143 56.9689 46.988 55.5478 49.1865 56.4004C49.1865 56.4004 52.3631 56.8853 47.1886 60.5634C42.3318 64.0158 27.6946 78.9791 26.1147 81.8129C24.5347 84.6468 21.7427 88.4168 16.9862 98.6654" stroke="#E6AE82" stroke-miterlimit="10" stroke-linecap="round" stroke-linejoin="round"/>
<path d="M2.29043 90.5652C9.02809 81.4284 13.6508 74.0638 17.8222 62.6365C21.8848 51.5353 23.8994 47.9073 27.0258 44.6472C28.6977 42.9 30.9965 42.783 33.2786 42.9168C35.8951 43.0672 38.1271 43.5604 41.2451 43.9868C42.7749 44.1957 48.8521 45.0735 48.9107 46.1936C49.1029 50.0975 36.8648 48.459 35.9286 48.4005C33.5378 48.2417 32.2672 49.4789 31.03 51.4935C29.0488 54.7118 26.9004 61.1402 32.0916 62.8539C33.939 63.4641 35.6193 62.6282 37.2075 61.7504C39.2054 60.6386 41.0779 59.46 42.9588 58.1726C44.7143 56.9689 46.988 55.5478 49.1865 56.4004" stroke="#3C4043" stroke-miterlimit="10" stroke-linecap="round" stroke-linejoin="round"/>
<path d="M30.4949 53.4082C30.6286 53.7259 30.5952 53.9516 30.662 54.2859C30.8627 55.2723 31.2138 56.2755 31.9327 57.0195C32.5178 57.6213 33.5209 58.357 34.3652 57.822" stroke="#3C4043" stroke-miterlimit="10" stroke-linecap="round" stroke-linejoin="round"/>
</g>
</svg>
