<svg width="22" height="16" viewBox="0 0 22 16" fill="none" xmlns="http://www.w3.org/2000/svg">
  <path
      d="M7.84584 6.69586L5.97873 1.48628C5.73305 0.800798 4.77018 0.800798 4.5245 1.48628L0.0465532 13.9805C-0.135251 14.4878 0.238038 15.023 0.773667 15.023H5.4793C5.47857 15.022 5.47783 15.021 5.4771 15.02H3.99385C4.52948 15.02 4.90277 14.4848 4.72096 13.9776L4.63074 13.7259H1.50748L5.25161 3.27907L7.16102 8.60665L7.84584 6.69586Z"
      fill="#3C4043"/>
  <path fill-rule="evenodd" clip-rule="evenodd"
        d="M10.2609 1.48628C10.3832 1.14488 10.6835 0.973511 10.9844 0.972176C10.9868 0.972165 10.9891 0.972165 10.9915 0.972176C11.2924 0.97351 11.5927 1.14488 11.715 1.48628L16.1006 13.7229H16.0959L16.1872 13.9776C16.369 14.4848 15.9957 15.02 15.4601 15.02H15.5345C15.512 15.022 15.4891 15.023 15.4659 15.023H6.51004C6.48685 15.023 6.46391 15.022 6.44135 15.02H6.51071C6.00327 15.02 5.64153 14.5397 5.75945 14.0578C5.76587 14.032 5.77366 14.0063 5.78287 13.9805L10.2609 1.48628ZM10.988 3.27915L7.2438 13.7259H8.99572L8.3937 12.0461L9.07852 10.1353L10.3643 13.7229H10.3628L10.4541 13.9776C10.6359 14.4848 10.2626 15.02 9.72695 15.02H12.2438C11.7082 15.02 11.3349 14.4848 11.5167 13.9776L11.6069 13.7259H11.6106L12.8974 10.1354L13.5822 12.0462L12.9799 13.7259H14.7321L10.988 3.27915Z"
        fill="#3C4043"/>
  <path
      d="M16.4966 15.023H21.2023C21.7379 15.023 22.1112 14.4878 21.9294 13.9805L17.4515 1.48628C17.2058 0.800798 16.2429 0.800798 15.9972 1.48628L14.1301 6.69602L14.8149 8.6068L16.7244 3.27907L20.4685 13.7259H17.34L17.2498 13.9776C17.068 14.4848 17.4413 15.02 17.9769 15.02H16.4988C16.498 15.021 16.4973 15.022 16.4966 15.023Z"
      fill="#3C4043"/>
  <path
      d="M17.4755 1.48628L16.7484 3.27907L18.9317 9.37103L18.9293 9.37788L19.6141 11.2887L19.6166 11.2818L20.4925 13.7259H18.7406L19.3402 12.053L18.6554 10.1422L17.2797 13.9805C17.0979 14.4878 17.4712 15.023 18.0068 15.023H21.2263C21.762 15.023 22.1353 14.4878 21.9534 13.9805L17.4755 1.48628Z"
      fill="#3C4043"/>
  <path
      d="M4.5245 1.49102L5.25161 3.28381L3.06825 9.37577L3.07071 9.38262L2.38589 11.2934L2.38343 11.2866L1.50748 13.7306H3.25938L2.65981 12.0577L3.34464 10.1469L4.7203 13.9853C4.90211 14.4926 4.52882 15.0277 3.99319 15.0277H0.773669C0.23804 15.0277 -0.135248 14.4926 0.0465554 13.9853L4.5245 1.49102Z"
      fill="#3C4043"/>
  <path
      d="M16.5042 15.0277H21.2034C21.7383 15.0277 22.1111 14.4924 21.9295 13.9849L17.4578 1.48645C17.2124 0.80074 16.2509 0.80074 16.0056 1.48645L14.141 6.69795L14.8249 8.60938L16.7317 3.27985L20.4706 13.7302H17.3465L17.2564 13.982C17.0748 14.4894 17.4476 15.0248 17.9825 15.0248H16.5064C16.5056 15.0257 16.5049 15.0267 16.5042 15.0277Z"
      fill="#3C4043"/>
  <path
      d="M17.4818 1.48645L16.7557 3.27985L18.936 9.37387L18.9335 9.38072L19.6174 11.2921L19.6199 11.2853L20.4946 13.7302H18.7451L19.3439 12.0567L18.66 10.1453L17.2862 13.9849C17.1047 14.4924 17.4775 15.0277 18.0123 15.0277H21.2274C21.7623 15.0277 22.1351 14.4924 21.9535 13.9849L17.4818 1.48645Z"
      fill="#3C4043"/>
  <path
      d="M10.9997 0.972176C10.6992 0.973512 10.3993 1.14494 10.2771 1.48645L5.80534 13.9849C5.79614 14.0107 5.78837 14.0364 5.78196 14.0622C5.6642 14.5443 6.02544 15.0248 6.53218 15.0248H6.46292C6.48544 15.0267 6.50835 15.0277 6.53151 15.0277H9.52399L9.01375 13.7302H7.26425L11.0032 3.27993L14.7421 13.7302H12.9924L13.5939 12.0499L12.91 10.1385L11.625 13.7302H11.6213L11.5312 13.982C11.3497 14.4894 11.7225 15.0248 12.2573 15.0248L12.2901 15.0277H15.4749C15.4981 15.0277 15.5209 15.0267 15.5435 15.0248H15.4691C16.004 15.0248 16.3768 14.4894 16.1952 13.982L16.1041 13.7272H16.1088L11.7293 1.48645C11.6071 1.14494 11.3073 0.97351 11.0067 0.972176L10.9997 0.972176Z"
      fill="#3C4043"/>
  <path
      d="M16.4876 15.0277H21.201C21.7375 15.0277 22.1114 14.4924 21.9293 13.9849L17.444 1.48645C17.198 0.80074 16.2335 0.80074 15.9874 1.48645L14.1172 6.69795L14.8032 8.60938L16.7157 3.27985L20.466 13.7302H17.3324L17.242 13.982C17.0599 14.4894 17.4338 15.0248 17.9703 15.0248H16.4898C16.489 15.0257 16.4883 15.0267 16.4876 15.0277Z"
      fill="#3C4043"/>
  <path
      d="M17.4681 1.48645L16.7398 3.27985L18.9267 9.37387L18.9243 9.38072L19.6102 11.2921L19.6127 11.2853L20.4901 13.7302H18.7353L19.3358 12.0567L18.6499 10.1453L17.272 13.9849C17.0899 14.4924 17.4638 15.0277 18.0003 15.0277H21.2251C21.7616 15.0277 22.1355 14.4924 21.9534 13.9849L17.4681 1.48645Z"
      fill="#3C4043"/>
  <path
      d="M11.4996 13.982C11.3175 14.4894 11.6914 15.0248 12.2279 15.0248L15.2932 15.0277L14.7202 13.7302H12.9652L13.5685 12.0499L12.8825 10.1385L11.5936 13.7302H11.5899L11.4996 13.982Z"
      fill="#3C4043"/>
  <path
      d="M20.5157 13.7302H20.4917H18.7686H17.4027L17.3116 13.9849C17.1303 14.4924 17.5026 15.0277 18.0368 15.0277H20.9948L20.5157 13.7302Z"
      fill="#3C4043"/>
  <path d="M18.7686 13.7302L19.3665 12.0567L18.6835 10.1453L17.4027 13.7302H18.7686Z"
        fill="#3C4043"/>
</svg>
