<svg width="36" height="24" viewBox="0 0 36 24" fill="none" xmlns="http://www.w3.org/2000/svg">
  <path
      d="M12.8386 9.86605L9.78337 1.34127C9.38135 0.219576 7.80574 0.219576 7.40373 1.34127L0.076178 21.7864C-0.22132 22.6165 0.389517 23.4922 1.266 23.4922H8.96613C8.96492 23.4906 8.96373 23.489 8.96253 23.4874H6.53539C7.41187 23.4874 8.02271 22.6117 7.72521 21.7816L7.57758 21.3697H2.46679L8.59355 4.27493L11.718 12.9928L12.8386 9.86605Z"
      fill="#EA4335"/>
  <path fill-rule="evenodd" clip-rule="evenodd"
        d="M16.7905 1.34127C16.9907 0.782618 17.4821 0.502198 17.9745 0.500012C17.9784 0.499996 17.9822 0.499996 17.986 0.500013C18.4785 0.502195 18.9698 0.782615 19.1701 1.34127L26.3465 21.3648H26.3387L26.4881 21.7816C26.7856 22.6117 26.1748 23.4874 25.2983 23.4874H25.4201C25.3832 23.4906 25.3457 23.4922 25.3078 23.4922H10.6528C10.6148 23.4922 10.5773 23.4906 10.5404 23.4874H10.6539C9.82353 23.4874 9.2316 22.7014 9.42456 21.9129C9.43506 21.8707 9.4478 21.8285 9.46288 21.7864L16.7905 1.34127ZM17.9803 4.27507L11.8535 21.3697H14.7203L13.7351 18.6209L14.8558 15.4942L16.9598 21.3648H16.9573L17.1067 21.7816C17.4042 22.6117 16.7933 23.4874 15.9168 23.4874H20.0353C19.1589 23.4874 18.548 22.6117 18.8455 21.7816L18.9931 21.3697H18.9991L21.1048 15.4944L22.2254 18.6212L21.2399 21.3697H24.107L17.9803 4.27507Z"
        fill="#EA4335"/>
  <path
      d="M26.9944 23.4922H34.6947C35.5712 23.4922 36.182 22.6165 35.8845 21.7864L28.557 1.34127C28.1549 0.219576 26.5793 0.219576 26.1773 1.34127L23.1219 9.86631L24.2426 12.993L27.3671 4.27493L33.4939 21.3697H28.3746L28.227 21.7816C27.9295 22.6117 28.5403 23.4874 29.4168 23.4874H26.998C26.9968 23.489 26.9956 23.4906 26.9944 23.4922Z"
      fill="#EA4335"/>
  <path
      d="M28.5963 1.34127L27.4065 4.27493L30.9792 14.2436L30.9752 14.2548L32.0958 17.3815L32.0998 17.3703L33.5332 21.3697H30.6665L31.6476 18.6322L30.527 15.5055L28.2759 21.7864C27.9784 22.6165 28.5892 23.4922 29.4657 23.4922H34.734C35.6105 23.4922 36.2213 22.6165 35.9238 21.7864L28.5963 1.34127Z"
      fill="#EA4335"/>
  <path
      d="M7.40373 1.34903L8.59355 4.28268L5.02078 14.2514L5.0248 14.2626L3.90418 17.3893L3.90016 17.3781L2.46679 21.3774H5.33353L4.35242 18.64L5.47304 15.5133L7.72413 21.7942C8.02163 22.6243 7.4108 23.5 6.53431 23.5H1.266C0.38952 23.5 -0.221315 22.6243 0.0761815 21.7942L7.40373 1.34903Z"
      fill="#EA4335"/>
  <path
      d="M27.0068 23.5H34.6965C35.5718 23.5 36.1817 22.624 35.8847 21.7936L28.5673 1.34156C28.1658 0.219482 26.5924 0.219481 26.1909 1.34156L23.1398 9.86946L24.2589 12.9973L27.3791 4.2762L33.4974 21.3767H28.3852L28.2377 21.7888C27.9407 22.6191 28.5506 23.4951 29.4259 23.4951H27.0104C27.0092 23.4968 27.008 23.4984 27.0068 23.5Z"
      fill="#FBBC05"/>
  <path
      d="M28.6065 1.34156L27.4184 4.2762L30.9862 14.2482L30.9822 14.2594L32.1012 17.3872L32.1053 17.376L33.5366 21.3767H30.6739L31.6536 18.6383L30.5345 15.5106L28.2866 21.7936C27.9895 22.624 28.5995 23.5 29.4747 23.5H34.7358C35.611 23.5 36.221 22.624 35.9239 21.7936L28.6065 1.34156Z"
      fill="#FBBC05"/>
  <path
      d="M17.9995 0.500012C17.5077 0.502199 17.0171 0.782713 16.8171 1.34156L9.49966 21.7936C9.4846 21.8357 9.47187 21.8779 9.46139 21.9201C9.2687 22.7089 9.85981 23.4951 10.689 23.4951H10.5757C10.6125 23.4984 10.65 23.5 10.6879 23.5H15.5847L14.7498 21.3767H11.887L18.0053 4.27634L24.1235 21.3767H21.2604L22.2445 18.6273L21.1255 15.4995L19.0227 21.3767H19.0167L18.8693 21.7888C18.5722 22.6191 19.1822 23.4951 20.0575 23.4951L20.111 23.5H25.3226C25.3605 23.5 25.3979 23.4984 25.4348 23.4951H25.3131C26.1884 23.4951 26.7984 22.6191 26.5013 21.7888L26.3521 21.3719H26.3599L19.1934 1.34156C18.9934 0.78271 18.5028 0.502196 18.011 0.500013L17.9995 0.500012Z"
      fill="#FBBC05"/>
  <path
      d="M26.9796 23.5H34.6925C35.5705 23.5 36.1823 22.624 35.8843 21.7936L28.5448 1.34156C28.1421 0.219482 26.5639 0.219481 26.1613 1.34156L23.1009 9.86946L24.2233 12.9973L27.353 4.2762L33.4898 21.3767H28.3621L28.2143 21.7888C27.9163 22.6191 28.5281 23.4951 29.406 23.4951H26.9833C26.9821 23.4968 26.9809 23.4984 26.9796 23.5Z"
      fill="#34A853"/>
  <path
      d="M28.5842 1.34156L27.3924 4.2762L30.971 14.2482L30.967 14.2594L32.0894 17.3872L32.0935 17.376L33.5292 21.3767H30.6578L31.6405 18.6383L30.518 15.5106L28.2632 21.7936C27.9653 22.624 28.5771 23.5 29.455 23.5H34.7319C35.6099 23.5 36.2217 22.624 35.9237 21.7936L28.5842 1.34156Z"
      fill="#34A853"/>
  <path
      d="M18.8175 21.7888C18.5195 22.6191 19.1313 23.4951 20.0092 23.4951L25.0253 23.5L24.0876 21.3767H21.2158L22.2029 18.6273L21.0805 15.4995L18.9713 21.3767H18.9654L18.8175 21.7888Z"
      fill="#34A853"/>
  <path
      d="M33.5711 21.3767H33.5319H30.7122H28.4771L28.3281 21.7936C28.0314 22.624 28.6406 23.5 29.5147 23.5H34.3551L33.5711 21.3767Z"
      fill="#3D81DC"/>
  <path d="M30.7122 21.3767L31.6906 18.6383L30.5731 15.5106L28.4771 21.3767H30.7122Z"
        fill="#3D81DC"/>
</svg>
