<svg width="600" height="216" viewBox="0 0 600 216" fill="none" xmlns="http://www.w3.org/2000/svg">
<path d="M121.254 87.9594L92.3985 7.90064C88.6017 -2.63355 73.7209 -2.63355 69.9241 7.90064L0.719459 199.907C-2.09024 207.703 3.67877 215.927 11.9567 215.927H84.6801C84.6687 215.912 84.6574 215.897 84.6461 215.882H61.7231C70.001 215.882 75.77 207.657 72.9603 199.862L71.5661 195.994H23.2974L81.1613 35.4515L110.67 117.324L121.254 87.9594Z" fill="#EA4335"/>
<path fill-rule="evenodd" clip-rule="evenodd" d="M158.577 7.90064C160.468 2.65415 165.108 0.0206429 169.76 0.000117281C169.796 -3.97033e-05 169.832 -3.84499e-05 169.868 0.000121041C174.519 0.0206162 179.16 2.65412 181.051 7.90064L248.828 195.948H248.755L250.165 199.862C252.975 207.657 247.206 215.882 238.928 215.882H240.079C239.73 215.912 239.376 215.927 239.018 215.927H100.61C100.251 215.927 99.8967 215.912 99.5482 215.882H100.62C92.7778 215.882 87.1873 208.5 89.0097 201.095C89.1089 200.699 89.2292 200.302 89.3716 199.907L158.577 7.90064ZM169.814 35.4528L111.95 195.994H139.025L129.721 170.179L140.304 140.815L160.176 195.948H160.152L161.563 199.862C164.373 207.657 158.604 215.882 150.326 215.882H189.223C180.945 215.882 175.176 207.657 177.985 199.862L179.38 195.994H179.436L199.323 140.817L209.907 170.181L200.599 195.994H227.677L169.814 35.4528Z" fill="#EA4335"/>
<path d="M254.947 215.927H327.672C335.95 215.927 341.719 207.703 338.909 199.907L269.705 7.90064C265.908 -2.63355 251.027 -2.63355 247.23 7.90064L218.374 87.9618L228.957 117.326L258.467 35.4515L316.331 195.994H267.982L266.588 199.862C263.778 207.657 269.547 215.882 277.825 215.882H254.981C254.969 215.897 254.958 215.912 254.947 215.927Z" fill="#EA4335"/>
<path d="M270.076 7.90064L258.839 35.4515L292.582 129.07L292.544 129.176L303.127 158.54L303.165 158.434L316.703 195.994H289.628L298.894 170.285L288.31 140.921L267.05 199.907C264.24 207.703 270.009 215.927 278.287 215.927H328.043C336.321 215.927 342.09 207.703 339.281 199.907L270.076 7.90064Z" fill="#EA4335"/>
<path d="M69.9241 7.97346L81.1613 35.5243L47.4185 129.143L47.4564 129.248L36.8728 158.613L36.8348 158.507L23.2975 196.066H50.3722L41.1062 170.358L51.6899 140.994L72.9502 199.98C75.7599 207.776 69.9909 216 61.713 216H11.9567C3.6788 216 -2.0902 207.776 0.719492 199.98L69.9241 7.97346Z" fill="#EA4335"/>
<path d="M255.065 216H327.689C335.955 216 341.716 207.773 338.911 199.975L269.802 7.90331C266.01 -2.63443 251.15 -2.63444 247.359 7.9033L218.542 87.9915L229.111 117.366L258.58 35.4634L316.364 196.06H268.082L266.69 199.929C263.884 207.727 269.645 215.954 277.911 215.954H255.099C255.087 215.97 255.076 215.985 255.065 216Z" fill="#FBBC05"/>
<path d="M270.173 7.90331L258.951 35.4634L292.647 129.114L292.609 129.219L303.178 158.593L303.216 158.488L316.735 196.06H289.698L298.951 170.343L288.382 140.969L267.151 199.975C264.345 207.773 270.106 216 278.373 216H328.06C336.326 216 342.087 207.773 339.282 199.975L270.173 7.90331Z" fill="#FBBC05"/>
<path d="M169.996 0.00011732C165.351 0.0206499 160.717 2.65505 158.829 7.9033L89.719 199.975C89.5768 200.37 89.4566 200.766 89.3576 201.163C87.5377 208.57 93.1205 215.954 100.952 215.954H99.8815C100.229 215.985 100.584 216 100.942 216H147.189L139.303 196.06H112.266L170.05 35.4648L227.833 196.06H200.792L210.087 170.239L199.518 140.865L179.659 196.06H179.602L178.21 199.929C175.404 207.727 181.165 215.954 189.432 215.954L189.938 216H239.158C239.516 216 239.869 215.985 240.217 215.954H239.068C247.335 215.954 253.096 207.727 250.29 199.929L248.881 196.014H248.954L181.271 7.90331C179.383 2.65502 174.749 0.0206232 170.104 0.000121081L169.996 0.00011732Z" fill="#FBBC05"/>
<path d="M254.808 216H327.652C335.943 216 341.722 207.773 338.907 199.975L269.59 7.90331C265.787 -2.63443 250.882 -2.63444 247.079 7.9033L218.175 87.9915L228.776 117.366L258.334 35.4634L316.292 196.06H267.865L266.468 199.929C263.654 207.727 269.432 215.954 277.724 215.954H254.842C254.83 215.97 254.819 215.985 254.808 216Z" fill="#34A853"/>
<path d="M269.962 7.90331L258.706 35.4634L292.504 129.114L292.466 129.219L303.067 158.593L303.105 158.488L316.664 196.06H289.546L298.827 170.343L288.226 140.969L266.931 199.975C264.116 207.773 269.895 216 278.186 216H328.024C336.315 216 342.094 207.773 339.279 199.975L269.962 7.90331Z" fill="#34A853"/>
<path d="M177.721 199.929C174.906 207.727 180.685 215.954 188.976 215.954L236.35 216L227.494 196.06H200.371L209.694 170.239L199.093 140.865L179.174 196.06H179.117L177.721 199.929Z" fill="#34A853"/>
<path d="M317.061 196.06H316.69H290.06H268.95L267.543 199.975C264.741 207.773 270.495 216 278.75 216H324.464L317.061 196.06Z" fill="#3D81DC"/>
<path d="M290.06 196.06L299.3 170.343L288.746 140.969L268.95 196.06H290.06Z" fill="#3D81DC"/>
<path fill-rule="evenodd" clip-rule="evenodd" d="M354.753 6C352.641 6 350.757 7.32663 350.045 9.31474L316.393 103.315C315.227 106.572 317.641 110 321.101 110H559.247C561.359 110 563.243 108.673 563.955 106.685L597.607 12.6853C598.773 9.42841 596.359 6 592.899 6H354.753ZM474.824 87C471.99 87 469.348 86.4706 466.898 85.4118C464.496 84.3048 462.455 82.6684 460.773 80.5027C459.14 78.2888 458.035 75.5695 457.459 72.3449L466.754 68.5909C466.898 70.2754 467.33 71.8155 468.051 73.2112C468.819 74.6069 469.852 75.7139 471.149 76.5321C472.494 77.3503 474.079 77.7594 475.904 77.7594C477.538 77.7594 479.027 77.4947 480.372 76.9652C481.717 76.3877 482.773 75.5936 483.542 74.5829C484.359 73.5241 484.767 72.2968 484.767 70.9011C484.767 69.6979 484.503 68.639 483.974 67.7246C483.446 66.8102 482.581 65.9679 481.38 65.1979C480.18 64.3797 478.546 63.5856 476.481 62.8155L473.959 61.8048C472.134 61.0829 470.404 60.1444 468.771 58.9893C467.138 57.7861 465.817 56.2941 464.808 54.5134C463.848 52.7326 463.367 50.5909 463.367 48.0882C463.367 45.2005 464.16 42.6257 465.745 40.3636C467.378 38.1016 469.564 36.3209 472.302 35.0214C475.088 33.6738 478.21 33 481.669 33C485.223 33 488.081 33.6016 490.243 34.8048C492.453 36.008 494.11 37.4759 495.215 39.2086C496.367 40.8931 497.088 42.5053 497.376 44.0455L488.442 47.4385C488.201 46.3797 487.769 45.4412 487.145 44.623C486.52 43.8048 485.68 43.1551 484.623 42.6738C483.614 42.1925 482.317 41.9519 480.732 41.9519C479.435 41.9519 478.186 42.1925 476.985 42.6738C475.832 43.107 474.896 43.7567 474.175 44.623C473.455 45.4412 473.094 46.4759 473.094 47.7273C473.094 48.7861 473.335 49.7246 473.815 50.5428C474.343 51.3128 475.136 52.0348 476.193 52.7086C477.297 53.3342 478.666 53.9599 480.3 54.5856L483.254 55.6684C485.559 56.5348 487.553 57.5936 489.234 58.8449C490.915 60.0963 492.212 61.6364 493.125 63.4652C494.086 65.246 494.566 67.3636 494.566 69.8182C494.566 73.139 493.725 76.0989 492.044 78.6979C490.411 81.2487 488.105 83.2701 485.127 84.762C482.197 86.254 478.763 87 474.824 87ZM391.555 43.3957L383.917 85.8449H393.572L401.21 43.3957H415.548L417.133 34.1551H378.657L377 43.3957H391.555ZM424.979 34.1551L415.829 85.8449H448.541L450.126 76.6043H427.141L429.303 64.6203H449.982L451.639 55.3797H430.888L433.049 43.3957H456.034L457.691 34.1551H424.979ZM503.867 43.3957H518.421L510.784 85.8449H520.439L528.076 43.3957H542.415L544 34.1551H505.524L503.867 43.3957Z" fill="#3D81DC"/>
<path d="M376 191.842L385.12 140H401.995C405.299 140 408.171 140.652 410.613 141.955C413.054 143.21 414.945 144.923 416.286 147.096C417.674 149.268 418.368 151.705 418.368 154.408C418.368 156.87 417.866 159.187 416.86 161.359C415.903 163.531 414.562 165.438 412.839 167.079C411.163 168.72 409.224 170 407.022 170.917C406.256 171.255 405.49 171.544 404.724 171.786L414.706 191.262L414.634 191.842H404.078L394.168 172.365H389.07L385.623 191.842H376ZM390.649 163.387H399.626C401.349 163.387 402.881 163.097 404.222 162.518C405.61 161.89 406.687 160.997 407.453 159.839C408.219 158.632 408.602 157.136 408.602 155.35C408.602 153.515 407.98 152.019 406.735 150.861C405.49 149.654 403.791 149.051 401.636 149.051H393.163L390.649 163.387Z" fill="#4285F4"/>
<path d="M441.045 193C438.508 193 436.09 192.541 433.792 191.624C431.542 190.707 429.58 189.307 427.904 187.425C426.276 185.542 425.127 183.153 424.457 180.257C423.787 177.312 423.811 173.837 424.529 169.831L429.699 140H439.394L433.864 171.496C433.385 174.296 433.433 176.612 434.008 178.447C434.63 180.233 435.659 181.56 437.096 182.429C438.58 183.298 440.327 183.732 442.338 183.732C444.54 183.732 446.455 183.25 448.083 182.284C449.758 181.27 451.123 179.871 452.176 178.085C453.277 176.25 454.043 174.151 454.474 171.786L460.003 140H469.698L464.025 172.365C462.828 179.364 460.219 184.553 456.197 187.932C452.224 191.311 447.173 193 441.045 193Z" fill="#4285F4"/>
<path d="M471.373 191.842L480.493 140H491.193L506.345 174.754H506.92L508.069 164.762L512.449 140H522L512.88 191.842H503.329L487.387 155.133H486.813L485.664 165.124L480.924 191.842H471.373Z" fill="#4285F4"/>
</svg>
